<svg id="svg" xmlns="http://www.w3.org/2000/svg" xmlns:xlink="http://www.w3.org/1999/xlink" width="400" height="400" viewBox="0, 0, 400,400"><g id="svgg"><path id="path0" d="M183.510 13.731 C 141.628 15.775,101.083 32.944,69.065 62.194 C 64.685 66.196,56.961 74.280,56.989 74.833 C 56.994 74.936,64.580 81.503,73.846 89.427 L 90.694 103.834 91.495 102.978 C 99.784 94.118,105.276 89.361,113.633 83.806 C 139.233 66.786,179.142 56.300,209.633 58.583 C 252.111 61.763,286.998 76.920,310.136 102.247 L 311.592 103.840 328.439 89.430 C 337.706 81.505,345.291 74.935,345.297 74.832 C 345.322 74.325,338.962 67.580,334.746 63.643 C 302.231 33.278,261.639 15.874,218.303 13.717 C 214.451 13.525,187.508 13.536,183.510 13.731 M198.912 25.265 C 198.971 27.667,199.060 32.498,199.111 36.000 C 199.162 39.502,199.233 42.516,199.269 42.698 C 199.333 43.018,199.428 43.027,202.110 42.965 L 204.885 42.901 204.932 44.421 L 204.980 45.940 207.821 33.541 C 209.383 26.722,210.673 21.127,210.686 21.107 C 210.734 21.038,219.795 21.863,219.877 21.945 C 219.965 22.033,221.689 49.510,221.612 49.611 C 221.570 49.667,218.351 49.419,216.302 49.202 L 215.380 49.104 215.262 46.591 C 215.126 43.705,215.359 44.005,213.123 43.836 C 212.109 43.760,211.778 43.787,211.716 43.950 C 211.672 44.067,211.467 45.097,211.260 46.238 C 210.760 49.004,211.156 48.759,207.644 48.478 C 205.315 48.291,203.353 48.264,198.781 48.356 C 195.552 48.421,192.899 48.459,192.886 48.441 C 192.874 48.423,192.778 43.486,192.674 37.469 C 192.570 31.453,192.439 25.305,192.384 23.808 L 192.282 21.085 192.835 21.018 C 193.139 20.981,194.607 20.938,196.097 20.924 L 198.806 20.898 198.912 25.265 M182.765 22.653 C 182.821 23.080,183.338 28.009,183.913 33.608 C 184.488 39.207,184.981 43.806,185.010 43.827 C 185.038 43.849,186.273 43.739,187.755 43.582 C 189.237 43.426,190.477 43.324,190.511 43.357 C 190.599 43.442,191.005 47.130,191.013 47.925 L 191.020 48.584 185.113 49.192 C 181.466 49.567,179.168 49.739,179.108 49.643 C 178.974 49.426,176.280 23.137,176.353 22.757 C 176.411 22.457,179.583 21.973,181.985 21.899 L 182.663 21.878 182.765 22.653 M172.082 23.121 C 172.082 23.176,172.268 24.324,172.496 25.672 C 172.725 27.020,172.873 28.161,172.827 28.207 C 172.780 28.254,171.620 28.487,170.249 28.726 C 168.877 28.964,167.760 29.192,167.766 29.233 C 167.772 29.273,167.948 30.353,168.157 31.633 C 168.598 34.338,168.304 34.132,171.017 33.633 C 173.140 33.243,172.822 32.933,173.339 35.895 C 173.849 38.812,174.057 38.459,171.574 38.887 C 170.461 39.079,169.534 39.246,169.514 39.260 C 169.448 39.304,170.568 45.562,170.659 45.652 C 170.707 45.701,171.896 45.542,173.300 45.300 C 174.703 45.057,175.881 44.887,175.916 44.923 C 176.018 45.025,176.865 49.965,176.792 50.038 C 176.701 50.129,165.200 52.111,165.136 52.047 C 164.996 51.908,160.454 25.124,160.553 25.025 C 160.829 24.750,172.082 22.890,172.082 23.121 M242.449 25.521 L 244.163 25.912 244.121 26.466 C 244.097 26.771,243.480 31.374,242.749 36.696 C 241.596 45.085,241.405 46.858,241.689 46.517 C 241.721 46.480,243.087 42.078,244.725 36.735 C 246.363 31.392,247.757 26.964,247.822 26.895 C 247.915 26.797,253.815 28.009,254.008 28.166 C 254.064 28.212,244.944 54.049,244.832 54.161 C 244.740 54.253,235.725 52.238,235.548 52.085 C 235.439 51.992,237.763 25.822,237.964 24.875 L 238.038 24.525 239.386 24.828 C 240.128 24.995,241.506 25.307,242.449 25.521 M158.605 39.345 C 160.481 46.618,161.984 52.601,161.943 52.642 C 161.821 52.764,155.923 54.263,155.852 54.190 C 155.815 54.153,155.179 51.771,154.439 48.898 C 153.699 46.024,153.072 43.648,153.047 43.616 C 152.891 43.421,150.703 44.178,150.774 44.403 C 151.248 45.897,153.432 54.792,153.343 54.867 C 153.199 54.987,147.243 56.528,147.193 56.458 C 147.036 56.237,140.383 30.012,140.464 29.931 C 140.817 29.577,146.604 28.288,146.680 28.546 C 146.725 28.695,147.283 30.837,147.921 33.306 C 148.559 35.776,149.151 38.063,149.236 38.390 L 149.390 38.983 150.409 38.734 C 150.970 38.597,151.488 38.432,151.561 38.368 C 151.634 38.303,151.101 35.973,150.377 33.191 C 149.653 30.408,149.061 28.021,149.061 27.885 C 149.061 27.667,154.056 26.180,154.943 26.135 C 155.139 26.125,155.931 28.982,158.605 39.345 M214.484 27.890 C 214.039 30.251,212.702 38.387,212.752 38.431 C 212.787 38.462,213.349 38.539,214.000 38.601 L 215.184 38.714 215.183 36.949 C 215.182 30.331,214.846 25.973,214.484 27.890 M264.058 31.174 C 266.290 31.887,268.152 32.506,268.196 32.550 C 268.239 32.593,267.276 38.680,266.056 46.076 C 264.835 53.472,263.837 59.612,263.837 59.721 C 263.837 60.029,263.616 59.980,260.529 58.992 C 258.208 58.250,257.645 58.013,257.708 57.808 C 257.752 57.666,257.976 56.669,258.206 55.592 C 258.436 54.514,258.660 53.514,258.703 53.370 C 258.769 53.154,256.081 52.082,255.473 52.082 C 255.433 52.082,254.971 53.055,254.448 54.245 C 253.925 55.435,253.445 56.468,253.382 56.542 C 253.294 56.644,247.630 54.971,247.377 54.768 C 247.349 54.746,249.509 50.220,252.177 44.711 C 254.845 39.201,257.568 33.568,258.227 32.193 C 259.213 30.134,259.476 29.708,259.713 29.785 C 259.871 29.836,261.826 30.461,264.058 31.174 M133.884 34.059 C 136.954 35.372,136.437 34.793,137.777 38.422 L 138.910 41.489 138.475 41.656 C 136.984 42.232,133.192 43.592,133.078 43.592 C 133.002 43.592,132.553 42.525,132.080 41.220 C 131.607 39.916,131.164 38.814,131.096 38.772 C 130.919 38.662,128.952 39.393,128.873 39.597 C 128.821 39.734,134.415 55.133,134.568 55.271 C 134.592 55.293,135.138 55.117,135.780 54.880 L 136.948 54.449 135.837 51.429 C 135.226 49.767,134.773 48.361,134.832 48.304 C 134.995 48.144,140.563 46.140,140.628 46.218 C 140.680 46.280,141.369 48.135,142.779 52.008 L 143.317 53.485 142.053 56.097 L 140.789 58.710 137.812 59.804 C 136.175 60.406,134.729 60.898,134.599 60.898 C 134.257 60.898,129.259 58.935,129.042 58.715 C 128.941 58.614,127.368 54.471,125.545 49.510 L 122.231 40.489 123.509 37.891 L 124.786 35.293 127.903 34.144 C 131.660 32.759,130.871 32.770,133.884 34.059 M278.650 36.572 C 280.197 37.223,281.433 37.804,281.397 37.863 C 281.227 38.138,272.806 58.165,272.849 58.192 C 272.876 58.210,274.018 58.694,275.388 59.269 C 276.757 59.844,277.878 60.388,277.878 60.478 C 277.878 60.862,275.983 65.134,275.811 65.138 C 275.587 65.144,265.127 60.748,264.919 60.561 C 264.810 60.463,269.864 48.276,275.128 35.942 C 275.308 35.520,275.514 35.263,275.634 35.309 C 275.746 35.352,277.103 35.920,278.650 36.572 M261.081 38.490 C 260.713 39.365,259.754 41.661,258.950 43.592 L 257.487 47.102 258.632 47.486 C 259.261 47.698,259.817 47.829,259.867 47.779 C 259.934 47.713,262.190 37.238,262.202 36.939 C 262.225 36.392,261.598 37.259,261.081 38.490 M121.876 51.429 C 126.074 57.490,129.538 62.524,129.574 62.615 C 129.657 62.828,124.187 65.554,123.958 65.412 C 123.863 65.354,123.223 64.389,122.536 63.269 L 121.286 61.231 119.786 61.981 C 118.961 62.394,118.258 62.757,118.225 62.787 C 118.191 62.818,118.540 63.860,119.000 65.103 C 119.460 66.347,119.837 67.415,119.837 67.477 C 119.837 67.597,114.278 70.422,114.212 70.336 C 114.190 70.308,112.220 64.371,109.834 57.143 L 105.495 44.000 109.605 41.932 C 113.425 40.010,113.733 39.884,113.978 40.136 C 114.123 40.286,117.677 45.367,121.876 51.429 M293.388 43.419 C 294.869 44.220,296.069 44.936,296.053 45.009 C 296.037 45.083,293.704 49.467,290.869 54.753 C 288.034 60.039,285.714 64.387,285.714 64.416 C 285.714 64.445,286.688 64.983,287.878 65.613 C 290.982 67.256,290.800 66.811,289.422 69.377 C 288.775 70.583,288.171 71.593,288.082 71.622 C 287.783 71.716,277.633 66.178,277.633 65.921 C 277.633 65.547,290.318 41.959,290.518 41.961 C 290.615 41.961,291.906 42.617,293.388 43.419 M112.207 47.633 C 112.310 47.989,116.071 57.484,116.179 57.659 C 116.296 57.847,118.385 56.774,118.331 56.554 C 118.212 56.064,112.552 47.347,112.353 47.347 C 112.214 47.347,112.157 47.458,112.207 47.633 M309.701 53.061 C 312.306 54.812,314.440 56.302,314.443 56.372 C 314.448 56.469,312.685 59.156,311.644 60.641 C 311.580 60.731,310.604 60.182,309.392 59.374 C 308.215 58.590,307.179 57.994,307.090 58.049 C 307.001 58.104,306.353 59.006,305.651 60.054 L 304.375 61.959 306.152 63.174 C 307.129 63.843,307.897 64.474,307.857 64.577 C 307.787 64.760,305.369 68.357,305.134 68.628 C 305.068 68.703,304.238 68.244,303.288 67.607 C 302.339 66.970,301.504 66.451,301.434 66.453 C 301.303 66.458,297.911 71.458,297.837 71.755 C 297.815 71.845,298.790 72.573,300.005 73.373 C 301.220 74.173,302.193 74.871,302.168 74.924 C 301.905 75.479,299.307 79.174,299.184 79.169 C 298.859 79.155,289.551 72.729,289.551 72.519 C 289.551 72.241,304.697 49.785,304.849 49.838 C 304.912 49.860,307.096 51.310,309.701 53.061 M97.775 50.770 C 99.335 51.034,100.626 51.272,100.645 51.299 C 102.729 54.277,111.246 67.449,111.236 67.679 C 111.229 67.862,110.985 69.149,110.694 70.539 L 110.165 73.067 107.282 74.982 C 105.696 76.036,104.252 76.898,104.073 76.898 C 103.464 76.898,98.587 75.958,98.455 75.815 C 98.382 75.737,95.958 72.083,93.067 67.694 L 87.811 59.715 88.433 56.930 C 88.776 55.399,89.130 54.081,89.222 54.002 C 89.507 53.756,94.771 50.286,94.857 50.288 C 94.902 50.289,96.215 50.506,97.775 50.770 M94.968 56.521 C 94.445 56.879,94.050 57.258,94.090 57.362 C 94.218 57.692,103.172 71.184,103.264 71.184 C 103.416 71.184,105.143 70.000,105.143 69.895 C 105.142 69.841,103.067 66.662,100.530 62.833 L 95.918 55.869 94.968 56.521 M322.084 62.567 C 322.212 62.722,321.690 63.851,320.069 66.927 C 318.866 69.211,317.904 71.102,317.932 71.129 C 317.960 71.157,319.483 70.096,321.318 68.771 C 323.152 67.447,324.880 66.202,325.157 66.006 L 325.661 65.649 328.014 67.690 C 329.308 68.813,330.383 69.782,330.401 69.845 C 330.420 69.908,327.151 71.854,323.136 74.171 L 315.837 78.382 312.096 82.693 L 308.355 87.003 307.198 86.008 C 306.561 85.460,305.477 84.528,304.788 83.935 C 304.098 83.342,303.529 82.814,303.522 82.762 C 303.516 82.709,305.134 80.803,307.119 78.526 C 311.535 73.460,310.647 74.986,314.047 66.612 C 315.633 62.706,317.032 59.266,317.156 58.967 L 317.382 58.423 319.647 60.391 C 320.893 61.473,321.989 62.452,322.084 62.567 M82.392 63.183 L 83.233 63.184 85.155 65.347 C 86.213 66.537,87.213 67.663,87.378 67.850 C 87.676 68.187,87.659 68.207,85.349 70.265 L 83.020 72.339 82.285 71.557 C 81.881 71.127,81.061 70.225,80.464 69.553 L 79.377 68.330 78.482 69.145 C 77.989 69.593,77.578 69.999,77.569 70.048 C 77.553 70.127,87.462 81.301,88.389 82.250 L 88.752 82.622 89.689 81.760 L 90.625 80.898 88.500 78.531 C 87.330 77.229,86.372 76.117,86.371 76.061 C 86.369 76.004,87.401 75.035,88.665 73.907 L 90.962 71.856 93.182 74.336 C 94.402 75.700,95.582 77.014,95.803 77.256 L 96.206 77.695 96.017 80.113 C 95.913 81.443,95.791 82.764,95.746 83.048 C 95.679 83.467,95.204 83.976,93.271 85.701 L 90.879 87.837 87.814 87.837 L 84.750 87.837 78.661 81.024 C 75.312 77.276,72.406 74.015,72.204 73.776 C 71.840 73.344,71.839 73.323,72.015 70.752 C 72.244 67.407,72.027 67.818,74.927 65.225 L 77.446 62.973 79.499 63.078 C 80.627 63.135,81.929 63.183,82.392 63.183 M213.807 66.665 C 213.566 66.981,211.326 71.709,208.829 77.171 C 206.332 82.633,203.323 89.182,202.142 91.723 C 199.528 97.347,199.272 98.178,199.418 100.558 C 199.614 103.764,199.558 103.933,198.049 104.675 C 197.354 105.016,197.104 105.251,196.832 105.818 C 196.402 106.714,196.792 106.604,188.816 108.078 C 158.786 113.629,154.939 114.438,154.939 115.198 C 154.939 115.499,155.085 115.568,156.061 115.729 C 157.786 116.014,161.234 115.731,174.612 114.207 C 178.114 113.808,182.815 113.291,185.057 113.058 C 191.097 112.429,192.378 112.068,194.251 110.465 C 194.960 109.859,195.900 109.393,196.426 109.389 C 196.480 109.388,196.564 109.959,196.612 110.658 C 196.676 111.589,196.831 112.220,197.193 113.019 L 197.688 114.110 197.861 132.524 C 198.292 178.402,198.412 193.315,198.351 193.368 C 198.268 193.439,143.623 193.800,143.553 193.730 C 143.268 193.444,144.013 142.373,144.312 141.714 C 144.499 141.303,144.647 140.629,144.649 140.184 L 144.653 139.388 145.156 139.488 C 145.433 139.544,145.959 139.846,146.327 140.161 C 147.292 140.987,148.411 141.340,150.965 141.623 C 152.208 141.761,156.200 142.205,159.837 142.610 C 166.430 143.344,170.464 143.706,170.828 143.596 C 170.934 143.564,171.222 143.493,171.469 143.439 C 173.605 142.971,169.953 142.151,146.204 137.767 C 144.976 137.540,144.676 137.387,144.488 136.893 C 144.405 136.676,144.088 136.395,143.782 136.267 C 142.852 135.878,142.704 135.514,142.811 133.873 C 142.939 131.893,142.843 131.600,140.173 125.807 C 138.886 123.017,136.932 118.751,135.830 116.327 C 133.812 111.889,133.327 111.011,132.714 110.683 C 131.783 110.185,132.141 111.384,136.589 123.678 C 138.798 129.782,140.712 135.082,140.844 135.456 C 141.061 136.074,141.056 136.188,140.798 136.681 C 140.629 137.005,140.471 137.800,140.408 138.649 C 140.302 140.090,140.016 140.735,139.483 140.735 C 138.353 140.735,136.954 142.024,134.699 145.145 C 133.759 146.446,130.939 150.295,128.434 153.699 C 124.051 159.653,123.453 160.610,123.675 161.311 C 123.768 161.606,123.835 161.582,124.513 161.020 C 125.297 160.368,136.252 148.105,139.180 144.601 C 140.142 143.449,140.949 142.531,140.974 142.560 C 140.999 142.589,140.923 145.110,140.805 148.163 C 140.687 151.216,140.247 162.714,139.827 173.714 C 139.407 184.714,139.042 193.738,139.016 193.768 C 138.989 193.797,134.461 193.887,128.953 193.966 C 100.350 194.377,59.926 195.367,59.630 195.662 C 59.421 195.872,82.196 196.545,104.082 196.976 C 164.609 198.168,238.351 198.168,298.449 196.976 C 320.520 196.538,342.867 195.873,342.655 195.661 C 342.367 195.374,301.648 194.370,273.900 193.967 C 268.075 193.882,263.290 193.791,263.266 193.764 C 263.242 193.736,262.878 184.714,262.459 173.714 C 262.039 162.714,261.599 151.216,261.481 148.163 C 261.363 145.110,261.287 142.589,261.312 142.560 C 261.336 142.531,262.144 143.449,263.106 144.601 C 266.034 148.105,276.989 160.368,277.773 161.020 C 278.451 161.582,278.517 161.606,278.611 161.311 C 278.835 160.604,278.201 159.610,273.080 152.641 C 270.149 148.652,267.223 144.667,266.578 143.786 C 265.354 142.115,264.370 141.254,263.265 140.887 C 262.149 140.517,261.998 140.274,261.878 138.661 C 261.815 137.802,261.658 137.006,261.487 136.681 C 261.229 136.188,261.225 136.074,261.442 135.456 C 261.573 135.082,263.488 129.782,265.696 123.678 C 270.145 111.384,270.503 110.185,269.572 110.683 C 268.958 111.011,268.474 111.889,266.456 116.327 C 265.354 118.751,263.399 123.017,262.113 125.807 C 259.443 131.600,259.347 131.893,259.475 133.873 C 259.581 135.514,259.433 135.878,258.503 136.267 C 258.192 136.397,257.880 136.678,257.793 136.905 C 257.569 137.494,257.511 137.509,250.286 138.860 C 231.272 142.414,230.367 142.607,230.367 143.117 C 230.367 143.240,230.569 143.385,230.816 143.439 C 231.063 143.493,231.351 143.563,231.456 143.595 C 231.809 143.702,235.960 143.337,241.714 142.693 C 244.857 142.341,248.809 141.901,250.497 141.716 C 253.899 141.341,254.919 141.050,255.959 140.161 C 256.326 139.846,256.853 139.544,257.130 139.488 L 257.633 139.388 257.636 140.184 C 257.638 140.632,257.786 141.301,257.975 141.714 C 258.278 142.379,259.018 193.444,258.729 193.734 C 258.698 193.765,249.420 193.720,238.112 193.633 C 226.803 193.547,214.783 193.475,211.400 193.473 L 205.248 193.469 205.157 192.612 C 204.983 190.968,202.096 114.258,202.204 114.150 C 202.249 114.105,202.310 114.099,202.339 114.136 C 204.673 117.115,209.468 122.628,221.352 136.000 C 224.930 140.026,228.116 143.321,228.449 143.340 C 228.753 143.357,228.559 141.455,228.192 140.816 C 227.986 140.457,224.733 135.976,220.964 130.857 C 217.195 125.739,213.048 120.085,211.750 118.293 C 208.213 113.415,207.198 112.442,204.851 111.677 C 203.355 111.190,203.246 110.994,203.094 108.522 C 202.993 106.884,202.896 106.371,202.548 105.633 C 201.966 104.395,201.654 105.461,206.595 91.797 C 215.474 67.241,215.658 66.705,215.323 66.370 C 214.934 65.982,214.223 66.120,213.807 66.665 M61.551 86.421 C 53.648 92.292,42.792 106.754,32.262 125.440 C 30.470 128.619,30.333 128.931,30.816 128.736 C 37.164 126.164,47.728 124.304,58.710 123.823 L 61.175 123.716 62.477 126.797 C 63.193 128.491,65.459 133.864,67.513 138.736 C 69.566 143.608,71.291 147.539,71.345 147.471 C 71.400 147.403,71.766 146.612,72.160 145.714 C 76.298 136.269,85.338 124.615,99.626 110.302 C 103.113 106.810,105.946 103.937,105.922 103.918 C 105.897 103.900,104.781 104.281,103.442 104.765 C 97.900 106.766,92.779 108.082,90.532 108.082 L 89.315 108.082 88.208 107.127 C 87.600 106.602,81.747 101.496,75.201 95.780 C 68.655 90.064,63.219 85.388,63.119 85.389 C 63.020 85.390,62.314 85.854,61.551 86.421 M327.086 95.780 C 320.540 101.496,314.686 106.602,314.077 107.127 L 312.971 108.082 311.754 108.082 C 309.506 108.082,304.386 106.766,298.844 104.765 C 297.504 104.281,296.389 103.899,296.366 103.917 C 296.343 103.934,299.176 106.807,302.661 110.301 C 317.255 124.930,326.550 137.017,330.457 146.449 C 330.661 146.943,330.876 147.403,330.934 147.471 C 330.992 147.539,332.720 143.608,334.773 138.736 C 336.826 133.864,339.092 128.491,339.809 126.797 L 341.111 123.716 343.576 123.823 C 354.558 124.304,365.121 126.164,371.469 128.736 C 371.952 128.931,371.815 128.619,370.024 125.440 C 360.745 108.973,350.663 95.017,343.454 88.660 C 341.617 87.040,339.462 85.397,339.168 85.391 C 339.070 85.389,333.633 90.064,327.086 95.780 M103.755 95.673 C 99.805 99.624,96.631 102.857,96.701 102.857 C 96.772 102.857,98.314 102.129,100.129 101.239 C 104.553 99.069,108.076 97.677,113.184 96.080 C 114.239 95.750,115.102 95.440,115.102 95.391 C 115.102 95.224,111.135 88.490,111.036 88.490 C 110.982 88.490,107.705 91.722,103.755 95.673 M289.167 91.896 C 288.076 93.770,287.184 95.344,287.184 95.394 C 287.184 95.444,287.937 95.715,288.857 95.997 C 293.674 97.471,297.754 99.079,302.157 101.239 C 303.971 102.129,305.514 102.857,305.585 102.857 C 305.655 102.857,302.481 99.624,298.531 95.673 C 294.580 91.722,291.304 88.490,291.250 88.490 C 291.195 88.490,290.258 90.023,289.167 91.896 M48.870 133.447 C 48.212 133.997,45.381 135.837,42.556 137.551 C 31.180 144.452,27.082 152.357,28.720 164.245 C 29.150 167.369,28.887 167.620,32.653 160.490 C 36.914 152.424,38.192 150.149,40.032 147.365 C 42.790 143.191,42.693 143.435,39.219 149.398 C 30.100 165.051,27.711 170.723,23.993 185.551 C 23.163 188.858,23.152 188.877,22.785 187.522 L 22.497 186.459 23.395 184.536 C 27.718 175.283,27.640 164.877,23.157 152.423 C 21.885 148.892,21.788 148.860,20.807 151.666 C 20.476 152.613,19.486 155.298,18.607 157.633 C 15.413 166.114,14.914 169.895,16.089 176.692 C 16.762 180.585,18.985 185.780,20.041 185.930 C 20.489 185.993,20.489 185.976,20.091 183.918 C 19.306 179.861,18.937 174.688,19.235 171.918 L 19.384 170.531 19.406 172.816 C 19.451 177.370,19.835 180.041,21.248 185.625 C 22.563 190.822,22.580 191.204,21.738 196.735 C 20.589 204.286,20.261 208.012,19.906 217.550 C 19.887 218.066,18.776 215.661,18.776 215.102 C 18.776 214.829,18.958 213.799,19.182 212.813 C 21.199 203.918,19.070 193.400,13.276 183.633 C 9.837 177.837,9.661 177.703,9.351 180.655 C 9.238 181.731,8.991 183.494,8.801 184.571 C 8.611 185.649,8.321 187.302,8.157 188.245 C 6.431 198.133,8.994 208.163,14.786 214.189 C 16.529 216.003,16.609 215.720,15.293 212.389 C 13.675 208.294,12.762 205.200,12.157 201.762 C 11.716 199.253,11.937 199.735,12.811 203.184 C 13.968 207.748,14.564 209.314,16.930 214.009 C 19.938 219.976,19.859 219.665,20.244 227.184 C 20.535 232.887,21.196 238.370,22.288 244.157 C 22.883 247.302,22.891 247.434,22.450 246.740 C 22.291 246.490,21.858 245.888,21.489 245.402 L 20.816 244.517 20.706 241.238 C 20.338 230.282,16.739 222.235,7.964 212.754 C 4.084 208.561,3.445 208.280,4.151 211.078 C 4.419 212.139,4.516 213.352,4.739 218.435 C 5.086 226.317,6.389 231.018,9.719 236.401 C 11.762 239.705,16.075 244.107,17.807 244.657 C 18.367 244.834,18.320 244.702,17.247 243.093 C 14.708 239.289,11.102 232.041,11.102 230.744 C 11.102 230.674,11.745 231.901,12.531 233.472 C 14.630 237.666,16.351 240.298,19.500 244.131 C 22.672 247.993,23.059 248.778,24.574 254.439 C 26.226 260.613,28.048 266.028,30.291 271.429 C 31.732 274.900,31.708 274.798,30.926 274.172 C 29.162 272.760,28.904 272.358,28.479 270.348 C 26.133 259.262,20.100 251.020,8.164 242.595 C 5.291 240.567,4.898 240.367,4.898 240.935 C 4.898 241.316,8.712 254.712,9.234 256.163 C 11.525 262.538,17.344 269.158,23.269 272.130 C 26.934 273.969,27.418 273.840,25.143 271.630 C 20.479 267.101,16.353 261.923,14.580 258.373 C 14.042 257.296,14.258 257.541,15.510 259.429 C 18.840 264.446,22.352 268.195,27.802 272.552 C 31.277 275.330,32.502 276.697,33.754 279.193 C 37.217 286.096,41.071 292.487,45.103 298.014 C 46.403 299.797,46.583 300.176,45.862 299.621 C 45.646 299.454,45.005 299.073,44.437 298.773 C 43.196 298.117,42.883 297.694,41.421 294.694 C 36.593 284.790,28.199 277.654,15.119 272.336 C 12.550 271.291,12.082 271.180,12.082 271.615 C 12.082 271.854,14.966 277.418,18.164 283.347 C 22.455 291.305,29.780 297.147,37.878 299.072 C 40.994 299.812,41.481 299.557,39.345 298.304 C 33.976 295.153,28.487 290.594,24.973 286.367 C 24.273 285.525,24.528 285.727,26.209 287.347 C 31.706 292.646,35.651 295.400,41.971 298.353 C 46.331 300.390,47.346 301.186,50.728 305.217 C 55.217 310.569,60.056 315.486,64.848 319.566 C 65.808 320.384,66.575 321.071,66.552 321.094 C 66.530 321.116,65.574 320.824,64.427 320.445 L 62.344 319.755 61.253 318.217 C 56.556 311.586,47.377 305.326,38.286 302.551 C 35.617 301.737,27.033 299.918,25.857 299.918 C 25.322 299.918,25.762 300.632,27.617 302.776 C 28.705 304.033,30.669 306.344,31.981 307.911 C 39.248 316.591,45.782 320.675,54.202 321.800 C 56.849 322.154,61.389 321.978,60.245 321.566 C 51.912 318.565,47.170 316.221,42.831 312.960 C 41.010 311.592,40.848 311.355,42.490 312.462 C 47.972 316.158,54.096 318.681,62.149 320.561 C 66.383 321.549,67.829 322.213,71.103 324.672 C 76.373 328.628,82.591 332.621,87.837 335.416 C 91.104 337.156,91.102 337.143,88.034 336.805 C 86.244 336.607,86.112 336.542,84.303 334.961 C 79.759 330.992,71.359 327.048,64.490 325.659 C 58.948 324.539,44.863 324.161,45.093 325.139 C 45.141 325.345,48.473 327.970,53.339 331.637 C 61.874 338.069,68.438 340.736,75.731 340.734 C 79.670 340.733,84.571 339.732,84.571 338.929 C 84.571 338.784,84.153 338.721,81.306 338.440 C 76.403 337.956,70.737 336.481,65.669 334.369 C 63.408 333.427,63.644 333.399,66.298 334.293 C 73.125 336.593,76.250 337.114,84.408 337.310 C 91.694 337.484,91.538 337.453,96.790 339.828 C 101.852 342.116,109.410 344.879,114.939 346.460 C 118.249 347.407,118.257 347.442,115.238 347.764 L 113.334 347.967 112.381 347.446 C 102.873 342.247,90.762 340.618,79.020 342.958 C 76.751 343.411,69.940 345.092,69.596 345.284 C 68.893 345.678,83.142 352.314,87.344 353.550 C 94.721 355.721,104.105 355.066,110.309 351.947 C 111.584 351.306,112.646 350.524,112.229 350.534 C 112.148 350.536,111.163 350.649,110.041 350.785 C 104.560 351.449,97.348 351.236,92.305 350.261 C 89.681 349.754,89.544 349.618,92.013 349.970 C 98.049 350.833,106.987 350.314,113.306 348.734 C 116.367 347.969,119.297 347.753,121.143 348.156 C 121.727 348.283,123.577 348.687,125.254 349.052 C 126.932 349.417,130.495 350.087,133.173 350.541 C 139.298 351.579,140.927 351.982,143.796 353.172 C 145.368 353.824,145.308 353.895,143.073 354.005 L 141.167 354.098 140.146 353.483 C 135.969 350.963,124.686 350.617,116.119 352.745 C 110.018 354.261,97.046 359.934,98.095 360.627 C 98.723 361.041,112.031 363.869,115.934 364.418 C 123.282 365.450,132.148 363.512,136.650 359.890 C 140.113 357.104,140.504 356.428,138.189 357.233 C 132.737 359.129,126.414 360.314,121.224 360.413 L 117.959 360.475 120.980 360.166 C 127.604 359.487,132.216 358.338,139.347 355.590 C 141.395 354.801,143.506 354.379,144.816 354.497 C 145.552 354.564,145.864 354.504,146.540 354.169 L 147.367 353.759 151.602 354.596 C 165.353 357.316,177.915 360.544,188.816 364.159 C 192.251 365.298,198.420 367.524,198.329 367.591 C 198.305 367.609,196.853 368.232,195.102 368.976 C 182.543 374.313,173.587 380.260,170.127 385.560 C 168.959 387.350,168.898 387.289,171.202 386.630 L 172.852 386.159 174.304 384.650 C 178.881 379.894,187.552 374.557,198.245 369.914 L 201.143 368.656 204.041 369.914 C 214.728 374.554,223.300 379.829,228.000 384.658 L 229.469 386.167 231.102 386.635 C 233.385 387.289,233.326 387.348,232.159 385.560 C 228.699 380.260,219.743 374.313,207.184 368.976 C 205.433 368.232,203.980 367.609,203.957 367.591 C 203.865 367.524,210.034 365.298,213.469 364.159 C 224.370 360.544,236.933 357.316,250.684 354.596 L 254.919 353.759 255.745 354.169 C 256.422 354.504,256.734 354.564,257.469 354.497 C 258.779 354.379,260.891 354.801,262.939 355.590 C 270.070 358.338,274.682 359.487,281.306 360.166 L 284.327 360.475 281.061 360.413 C 275.872 360.314,269.549 359.129,264.097 357.233 C 261.781 356.428,262.173 357.104,265.635 359.890 C 270.138 363.512,279.004 365.450,286.352 364.418 C 290.255 363.869,303.563 361.041,304.191 360.627 C 305.240 359.934,292.267 354.261,286.166 352.745 C 277.600 350.617,266.317 350.963,262.139 353.483 L 261.119 354.098 259.213 354.005 C 256.978 353.895,256.917 353.824,258.490 353.172 C 261.359 351.982,262.988 351.579,269.113 350.541 C 271.790 350.087,275.354 349.417,277.031 349.052 C 278.709 348.687,280.559 348.283,281.143 348.156 C 283.110 347.726,285.708 347.951,289.701 348.897 C 295.875 350.359,304.407 350.804,310.273 349.969 C 312.740 349.618,312.604 349.754,309.980 350.261 C 304.937 351.236,297.726 351.449,292.245 350.785 C 291.122 350.649,290.138 350.536,290.056 350.534 C 289.639 350.524,290.702 351.306,291.976 351.947 C 299.201 355.579,309.543 355.798,317.998 352.498 C 320.093 351.680,332.242 346.005,332.618 345.669 C 333.026 345.304,333.001 345.294,328.888 344.263 C 313.291 340.353,301.049 341.352,289.905 347.446 L 288.952 347.967 287.047 347.764 C 284.029 347.442,284.037 347.407,287.347 346.460 C 292.876 344.879,300.434 342.116,305.495 339.828 C 310.748 337.453,310.592 337.484,317.878 337.310 C 326.036 337.114,329.161 336.593,335.988 334.293 C 338.606 333.411,338.893 333.424,336.699 334.326 C 330.742 336.773,325.596 338.055,319.535 338.601 C 317.101 338.820,317.113 339.119,319.587 339.833 C 327.394 342.085,336.039 340.317,344.598 334.718 C 347.610 332.747,357.102 325.529,357.193 325.139 C 357.423 324.161,343.338 324.539,337.796 325.659 C 330.927 327.048,322.526 330.992,317.983 334.961 C 316.174 336.542,316.042 336.607,314.251 336.805 C 311.183 337.143,311.181 337.156,314.449 335.418 C 319.763 332.593,325.649 328.810,331.182 324.666 C 334.457 322.214,335.911 321.547,340.136 320.561 C 348.190 318.681,354.314 316.158,359.796 312.462 C 361.437 311.355,361.275 311.592,359.455 312.960 C 355.100 316.233,350.404 318.554,342.041 321.566 C 340.897 321.978,345.437 322.154,348.084 321.800 C 356.503 320.675,363.038 316.591,370.305 307.911 C 371.617 306.344,373.581 304.033,374.669 302.776 C 376.524 300.632,376.963 299.918,376.428 299.918 C 375.253 299.918,366.668 301.737,364.000 302.551 C 354.908 305.326,345.730 311.586,341.032 318.217 L 339.942 319.755 337.858 320.445 C 336.712 320.824,335.756 321.116,335.733 321.094 C 335.711 321.071,336.478 320.384,337.438 319.566 C 342.230 315.486,347.069 310.569,351.558 305.217 C 354.939 301.186,355.954 300.390,360.314 298.353 C 366.635 295.400,370.580 292.646,376.077 287.347 C 377.757 285.727,378.012 285.525,377.312 286.367 C 373.799 290.594,368.310 295.153,362.941 298.304 C 360.805 299.557,361.292 299.812,364.408 299.072 C 372.505 297.147,379.830 291.305,384.122 283.347 C 387.320 277.418,390.204 271.854,390.204 271.615 C 390.204 271.180,389.735 271.291,387.166 272.336 C 374.109 277.645,365.761 284.730,360.906 294.622 C 359.389 297.712,359.091 298.117,357.849 298.773 C 357.281 299.073,356.640 299.454,356.424 299.621 C 355.703 300.176,355.882 299.797,357.183 298.014 C 361.121 292.616,364.590 286.904,368.018 280.176 C 369.846 276.589,370.713 275.567,374.484 272.552 C 379.934 268.195,383.445 264.446,386.775 259.429 C 388.028 257.541,388.244 257.296,387.706 258.373 C 385.939 261.911,381.726 267.203,377.167 271.611 C 374.863 273.840,375.342 273.974,379.017 272.130 C 384.941 269.158,390.761 262.538,393.052 256.163 C 393.573 254.712,397.388 241.316,397.388 240.935 C 397.388 240.367,396.994 240.567,394.122 242.595 C 382.193 251.016,376.152 259.269,373.807 270.348 C 373.381 272.358,373.124 272.760,371.359 274.172 C 370.578 274.798,370.554 274.900,371.995 271.429 C 374.237 266.028,376.059 260.613,377.712 254.439 C 379.227 248.778,379.613 247.993,382.786 244.131 C 385.935 240.298,387.656 237.666,389.755 233.472 C 390.541 231.901,391.184 230.674,391.184 230.744 C 391.184 232.008,387.587 239.272,385.146 242.939 C 383.917 244.785,383.942 244.735,384.217 244.735 C 385.384 244.735,389.867 240.460,391.920 237.388 C 395.693 231.745,397.182 226.726,397.547 218.423 C 397.770 213.353,397.867 212.138,398.135 211.078 C 398.841 208.281,398.217 208.555,394.331 212.748 C 385.555 222.217,381.948 230.276,381.579 241.238 L 381.469 244.517 380.797 245.402 C 380.427 245.888,379.995 246.490,379.836 246.740 C 379.395 247.434,379.403 247.302,379.997 244.157 C 381.090 238.370,381.751 232.887,382.042 227.184 C 382.426 219.665,382.348 219.976,385.356 214.009 C 387.720 209.318,388.316 207.753,389.476 203.184 C 390.353 199.731,390.569 199.262,390.129 201.762 C 389.524 205.200,388.611 208.294,386.993 212.389 C 385.665 215.751,385.753 216.017,387.565 214.114 C 393.323 208.068,395.850 198.109,394.129 188.245 C 393.964 187.302,393.674 185.649,393.485 184.571 C 393.295 183.494,393.047 181.731,392.934 180.655 C 392.625 177.703,392.448 177.837,389.010 183.633 C 383.222 193.389,381.089 203.928,383.104 212.813 C 383.327 213.799,383.510 214.822,383.510 215.086 C 383.510 215.516,382.554 217.874,382.430 217.749 C 382.402 217.721,382.302 216.012,382.207 213.951 C 381.839 205.923,381.640 203.853,380.551 196.735 C 379.705 191.205,379.721 190.825,381.038 185.625 C 382.451 180.041,382.835 177.370,382.879 172.816 L 382.902 170.531 383.051 171.918 C 383.349 174.688,382.980 179.861,382.194 183.918 C 381.739 186.270,382.000 186.710,382.991 185.265 C 385.330 181.856,386.651 176.673,386.664 170.857 C 386.673 166.274,386.286 164.556,383.679 157.633 C 382.800 155.298,381.810 152.613,381.479 151.666 C 380.499 148.862,380.400 148.893,379.134 152.410 C 374.644 164.882,374.565 175.277,378.890 184.536 L 379.789 186.459 379.501 187.522 C 379.134 188.877,379.122 188.858,378.293 185.551 C 374.617 170.894,372.027 164.712,363.348 149.880 C 359.677 143.605,359.498 143.196,362.254 147.365 C 364.093 150.149,365.372 152.424,369.632 160.490 C 373.395 167.613,373.162 167.392,373.577 164.225 C 375.160 152.141,371.145 144.498,359.484 137.396 C 357.226 136.022,354.297 134.111,353.113 133.240 C 352.370 132.695,352.470 133.336,353.607 136.425 C 355.038 140.315,355.214 140.918,356.497 146.304 C 359.040 156.981,361.740 160.993,369.506 165.637 C 370.379 166.159,371.274 166.776,371.493 167.007 C 371.899 167.436,374.131 174.662,375.330 179.429 C 375.612 180.551,376.349 183.453,376.968 185.878 C 378.014 189.981,379.528 197.497,379.391 197.910 C 379.357 198.010,379.040 197.696,378.685 197.213 L 378.041 196.336 377.944 193.556 C 377.550 182.274,368.939 173.381,356.303 171.205 C 355.607 171.086,355.480 171.559,356.014 172.285 C 357.168 173.855,357.746 174.857,358.686 176.914 C 361.845 183.832,362.890 185.674,365.256 188.490 C 369.090 193.055,375.837 198.260,375.837 196.653 C 375.837 196.537,375.116 195.498,374.236 194.344 C 372.401 191.938,371.039 190.041,371.148 190.041 C 371.442 190.041,378.195 198.288,378.834 199.429 C 380.409 202.239,381.210 212.397,380.714 223.265 C 380.490 228.178,380.451 228.346,379.864 226.881 C 379.343 225.580,379.332 225.250,379.750 223.482 C 382.284 212.756,376.558 201.966,365.334 196.318 C 362.634 194.960,362.302 195.062,363.183 196.980 C 363.818 198.362,364.231 199.925,365.060 204.083 C 366.209 209.844,367.349 213.039,369.615 216.842 C 371.920 220.712,376.090 225.633,377.064 225.633 C 377.246 225.633,376.971 224.956,374.576 219.510 C 371.900 213.427,371.883 213.385,372.045 213.396 C 372.110 213.400,372.861 214.844,373.714 216.604 C 374.567 218.364,376.159 221.492,377.250 223.555 C 380.028 228.804,380.486 230.435,379.941 233.143 C 379.842 233.637,379.610 235.216,379.426 236.653 C 378.677 242.491,377.105 249.931,375.497 255.239 C 375.113 256.510,375.083 256.514,374.774 255.341 C 374.518 254.370,374.520 254.362,375.661 251.783 C 380.319 241.261,376.853 230.074,366.383 221.837 C 364.380 220.261,364.101 220.319,364.609 222.204 C 364.907 223.307,364.943 223.988,364.974 229.061 C 365.019 236.442,365.412 239.284,367.054 244.082 C 368.345 247.854,371.298 253.388,372.021 253.388 L 372.373 253.388 372.066 252.041 C 371.027 247.470,369.536 239.391,369.663 239.012 C 369.695 238.914,370.079 240.363,370.515 242.233 C 370.951 244.103,371.919 247.873,372.666 250.612 C 374.182 256.168,374.440 257.472,374.281 258.768 C 373.888 261.973,366.618 279.083,363.838 283.347 L 363.412 284.000 363.474 282.675 C 363.538 281.290,363.949 280.281,364.708 279.647 C 364.886 279.497,365.397 278.835,365.842 278.175 C 371.972 269.091,370.871 257.295,362.989 247.601 C 361.047 245.213,360.903 245.173,360.742 246.977 C 360.484 249.868,360.111 252.145,359.414 255.083 C 357.523 263.052,357.663 268.003,360.023 276.653 C 360.762 279.364,360.885 279.673,361.223 279.673 C 361.566 279.673,361.593 279.287,361.799 271.265 C 362.079 260.382,362.167 260.523,362.513 272.408 C 362.916 286.250,363.112 285.231,358.806 291.718 C 354.700 297.903,346.504 308.408,345.785 308.408 C 345.657 308.408,346.473 305.727,346.814 305.023 C 346.912 304.822,347.517 304.256,348.159 303.764 C 357.737 296.427,360.041 283.667,353.967 271.592 C 352.500 268.676,352.240 268.501,351.896 270.204 C 351.572 271.811,351.138 272.882,349.321 276.557 C 346.612 282.036,345.538 285.459,344.629 291.510 C 344.334 293.473,344.329 301.343,344.622 302.327 C 345.026 303.681,344.957 303.874,347.261 294.939 C 349.066 287.939,349.879 285.008,349.986 285.115 C 350.017 285.147,349.855 286.005,349.625 287.024 C 349.395 288.043,348.585 292.077,347.826 295.989 C 345.133 309.862,345.370 309.291,340.347 314.008 C 335.106 318.931,327.682 324.870,323.347 327.609 L 322.857 327.918 323.176 327.429 C 323.352 327.159,323.911 326.279,324.420 325.473 L 325.345 324.007 327.288 323.024 C 338.700 317.247,343.405 305.726,339.889 292.164 C 339.120 289.196,339.033 289.127,338.187 290.816 C 337.504 292.179,335.888 294.450,333.411 297.524 C 328.326 303.836,325.645 309.709,324.168 317.766 C 323.344 322.264,323.689 322.596,325.472 319.020 C 326.622 316.714,332.714 305.450,332.933 305.224 C 333.167 304.984,332.854 305.685,330.205 311.347 C 328.882 314.176,326.957 318.363,325.929 320.653 C 322.454 328.388,321.965 328.895,313.674 333.373 C 308.654 336.084,297.203 341.175,296.871 340.844 C 296.841 340.814,297.397 340.226,298.106 339.536 C 299.557 338.124,300.174 337.800,302.507 337.222 C 314.117 334.350,321.378 324.397,321.386 311.347 C 321.389 306.199,321.388 306.198,319.861 308.102 C 318.773 309.460,317.269 310.783,314.122 313.152 C 307.768 317.937,302.573 324.802,299.521 332.451 C 298.250 335.635,298.457 335.625,301.306 332.369 C 303.965 329.329,309.039 323.707,310.774 321.878 L 311.858 320.735 310.654 322.286 C 309.992 323.139,307.980 325.710,306.185 328.000 C 304.389 330.290,301.845 333.603,300.530 335.363 C 297.832 338.974,296.156 340.683,294.426 341.587 C 291.365 343.188,278.646 346.351,270.981 347.420 C 268.105 347.820,268.082 347.821,268.082 347.510 C 268.082 347.366,268.231 347.265,268.445 347.265 C 268.645 347.265,269.498 346.848,270.341 346.338 L 271.873 345.411 274.508 345.384 C 287.909 345.248,298.966 334.347,300.296 319.959 C 300.389 318.956,300.413 318.950,298.136 320.548 C 296.773 321.506,294.782 322.628,291.466 324.307 C 281.579 329.316,275.176 334.962,271.778 341.668 C 270.918 343.366,270.279 343.746,279.118 337.299 C 286.397 331.989,286.991 331.569,286.816 331.853 C 286.755 331.951,285.472 332.994,283.965 334.171 C 282.458 335.347,279.976 337.387,278.449 338.705 C 268.710 347.112,268.245 347.413,263.126 348.651 C 261.496 349.045,259.402 349.633,258.471 349.958 C 257.540 350.283,254.822 350.988,252.430 351.524 C 235.107 355.410,216.414 360.775,203.959 365.435 L 201.143 366.489 198.327 365.435 C 185.872 360.775,167.179 355.410,149.856 351.524 C 147.464 350.988,144.746 350.283,143.815 349.958 C 142.884 349.633,140.789 349.045,139.160 348.651 C 134.040 347.413,133.576 347.112,123.837 338.705 C 122.310 337.387,119.828 335.347,118.321 334.171 C 116.814 332.994,115.531 331.951,115.470 331.853 C 115.295 331.569,115.888 331.989,123.168 337.299 C 132.006 343.746,131.368 343.366,130.507 341.668 C 127.110 334.962,120.707 329.316,110.819 324.307 C 107.504 322.628,105.513 321.506,104.149 320.548 C 101.873 318.950,101.897 318.956,101.989 319.959 C 103.320 334.347,114.376 345.248,127.778 345.384 L 130.413 345.411 131.945 346.338 C 132.788 346.848,133.641 347.265,133.841 347.265 C 134.055 347.265,134.204 347.366,134.204 347.510 C 134.204 347.821,134.181 347.820,131.305 347.420 C 123.640 346.351,110.921 343.188,107.860 341.587 C 106.130 340.683,104.454 338.974,101.756 335.363 C 100.441 333.603,97.896 330.290,96.101 328.000 C 94.305 325.710,92.294 323.139,91.632 322.286 L 90.427 320.735 91.511 321.878 C 93.247 323.707,98.321 329.329,100.980 332.369 C 103.828 335.625,104.036 335.635,102.765 332.451 C 99.713 324.802,94.518 317.937,88.163 313.152 C 85.017 310.783,83.513 309.460,82.424 308.102 C 80.934 306.244,80.945 306.229,80.852 310.345 C 80.548 323.833,87.908 334.285,99.778 337.222 C 102.112 337.800,102.729 338.124,104.180 339.536 C 104.888 340.226,105.444 340.814,105.415 340.844 C 105.083 341.175,93.631 336.084,88.612 333.373 C 80.508 328.996,79.750 328.239,76.765 321.551 C 75.181 318.000,73.169 313.630,70.942 308.898 C 68.331 303.353,68.623 303.747,72.694 311.265 C 74.445 314.498,76.299 317.988,76.813 319.020 C 78.596 322.596,78.942 322.264,78.117 317.766 C 76.641 309.709,73.959 303.836,68.875 297.524 C 66.398 294.450,64.781 292.179,64.099 290.816 C 63.253 289.127,63.166 289.196,62.397 292.164 C 58.882 305.722,63.588 317.248,74.998 323.024 L 76.940 324.007 77.866 325.473 C 78.374 326.279,78.934 327.159,79.110 327.429 L 79.429 327.918 78.939 327.609 C 74.604 324.870,67.179 318.931,61.938 314.008 C 57.056 309.422,57.134 309.600,54.861 297.959 C 54.045 293.784,53.157 289.339,52.886 288.082 C 52.208 284.942,52.197 284.861,52.568 285.863 C 52.748 286.349,53.782 290.169,54.865 294.353 C 57.348 303.946,57.258 303.688,57.663 302.327 C 57.956 301.343,57.952 293.473,57.657 291.510 C 56.748 285.459,55.674 282.036,52.965 276.557 C 51.148 272.882,50.714 271.811,50.389 270.204 C 50.045 268.496,49.788 268.672,48.291 271.644 C 42.248 283.636,44.576 296.449,54.127 303.764 C 54.769 304.256,55.374 304.822,55.471 305.023 C 55.813 305.727,56.629 308.408,56.501 308.408 C 55.781 308.408,47.566 297.878,43.509 291.755 C 39.163 285.198,39.363 286.246,39.776 272.196 C 40.119 260.522,40.208 260.406,40.487 271.265 C 40.767 282.182,41.028 282.328,43.256 272.816 C 44.560 267.251,44.439 261.689,42.872 255.083 C 42.175 252.145,41.802 249.868,41.544 246.977 C 41.383 245.173,41.238 245.213,39.296 247.601 C 31.415 257.295,30.314 269.091,36.443 278.175 C 36.889 278.835,37.399 279.497,37.578 279.647 C 38.336 280.281,38.748 281.290,38.812 282.675 L 38.874 284.000 38.448 283.347 C 35.681 279.103,28.396 261.958,28.004 258.768 C 27.845 257.472,28.104 256.168,29.619 250.612 C 30.367 247.873,31.335 244.103,31.771 242.233 C 32.207 240.363,32.590 238.914,32.623 239.012 C 32.749 239.391,31.259 247.470,30.219 252.041 L 29.913 253.388 30.265 253.388 C 30.987 253.388,33.940 247.854,35.231 244.082 C 36.873 239.284,37.267 236.442,37.312 229.061 C 37.343 223.988,37.379 223.307,37.676 222.204 C 38.184 220.319,37.906 220.261,35.903 221.837 C 25.433 230.074,21.967 241.261,26.624 251.783 C 27.766 254.362,27.768 254.370,27.512 255.341 C 27.202 256.514,27.173 256.510,26.785 255.239 C 25.332 250.480,23.526 241.937,22.856 236.653 C 22.674 235.216,22.444 233.637,22.345 233.143 C 21.800 230.435,22.258 228.804,25.035 223.555 C 26.127 221.492,27.718 218.364,28.571 216.604 C 29.424 214.844,30.176 213.400,30.241 213.396 C 30.403 213.385,30.386 213.427,27.710 219.510 C 25.315 224.956,25.039 225.633,25.222 225.633 C 26.057 225.633,29.572 221.666,31.882 218.115 C 34.725 213.745,36.243 209.628,37.455 202.999 C 37.931 200.395,38.521 198.231,39.092 196.998 C 39.988 195.061,39.659 194.956,36.952 196.318 C 25.728 201.966,20.002 212.756,22.536 223.482 C 22.954 225.250,22.942 225.580,22.421 226.881 C 21.835 228.346,21.795 228.178,21.571 223.265 C 21.313 217.596,21.337 215.978,21.790 208.898 C 22.349 200.180,22.261 200.400,27.723 193.959 C 31.774 189.183,31.886 189.314,28.050 194.344 C 27.169 195.498,26.449 196.537,26.449 196.653 C 26.449 198.260,33.195 193.055,37.030 188.490 C 39.395 185.674,40.440 183.832,43.600 176.914 C 44.539 174.857,45.117 173.855,46.272 172.285 C 46.742 171.645,46.675 171.067,46.145 171.179 C 45.953 171.219,45.355 171.338,44.816 171.442 C 33.011 173.726,24.722 182.680,24.342 193.556 L 24.245 196.336 23.600 197.213 C 23.246 197.696,22.928 198.010,22.895 197.910 C 22.758 197.497,24.271 189.981,25.318 185.878 C 25.937 183.453,26.674 180.551,26.956 179.429 C 27.238 178.306,28.126 175.147,28.929 172.408 C 30.607 166.688,30.371 167.088,33.010 165.493 C 40.607 160.902,43.260 156.918,45.789 146.304 C 47.071 140.921,47.248 140.314,48.674 136.440 C 49.944 132.988,49.974 132.524,48.870 133.447 M177.361 204.477 C 175.046 205.039,172.718 206.975,171.638 209.237 L 171.020 210.531 170.977 229.878 C 170.946 243.379,170.987 249.484,171.111 250.084 C 171.599 252.436,173.625 255.021,175.780 256.042 L 176.898 256.571 180.389 256.621 C 185.868 256.700,188.217 255.600,189.875 252.178 C 190.710 250.453,190.711 250.438,190.660 230.041 L 190.612 211.020 190.221 210.041 C 189.102 207.243,186.870 205.180,184.213 204.488 C 183.048 204.185,178.596 204.178,177.361 204.477 M111.020 204.662 C 107.671 205.381,105.008 207.847,104.392 210.798 C 103.961 212.866,104.134 225.505,104.613 226.939 C 106.067 231.291,108.845 232.980,114.553 232.980 L 117.224 232.980 117.224 242.449 L 117.224 251.918 114.041 251.918 L 110.857 251.918 110.857 249.306 L 110.857 246.694 107.510 246.694 L 104.163 246.694 104.163 251.673 L 104.163 256.653 110.082 256.652 C 117.757 256.650,119.008 256.412,121.166 254.539 C 123.647 252.388,123.777 251.762,123.720 242.232 L 123.673 234.367 123.038 233.061 C 121.317 229.526,118.785 228.245,113.521 228.245 L 110.857 228.245 110.857 218.776 L 110.857 209.306 114.041 209.306 L 117.224 209.306 117.224 211.918 L 117.224 214.531 120.490 214.531 L 123.755 214.531 123.755 209.469 L 123.755 204.408 117.918 204.421 C 113.581 204.431,111.809 204.493,111.020 204.662 M136.980 204.630 C 134.495 205.307,132.341 207.378,131.272 210.120 L 130.857 211.184 130.812 233.918 L 130.768 256.653 134.119 256.653 L 137.469 256.653 137.469 232.898 L 137.469 209.143 140.653 209.143 L 143.837 209.143 143.837 232.898 L 143.837 256.653 147.102 256.653 L 150.367 256.653 150.367 232.898 L 150.367 209.143 153.633 209.143 L 156.898 209.143 156.898 232.898 L 156.898 256.653 160.248 256.653 L 163.597 256.653 163.554 233.837 L 163.510 211.020 163.153 210.076 C 162.192 207.532,159.763 205.331,157.143 204.630 C 156.017 204.329,138.086 204.329,136.980 204.630 M231.592 204.635 C 229.355 205.180,227.106 207.036,226.021 209.233 L 225.388 210.514 225.344 230.349 C 225.296 252.419,225.227 250.988,226.425 252.841 C 227.358 254.285,228.465 255.270,230.028 256.049 L 231.403 256.735 238.151 256.782 L 244.898 256.830 244.898 248.578 L 244.898 240.327 241.551 240.327 L 238.204 240.327 238.204 246.204 L 238.204 252.082 235.102 252.082 L 232.000 252.082 232.000 242.531 L 232.000 232.980 235.184 232.980 L 238.367 232.980 238.367 230.612 L 238.367 228.245 235.184 228.245 L 232.000 228.245 232.000 218.776 L 232.000 209.306 235.102 209.306 L 238.204 209.306 238.204 215.102 L 238.204 220.898 241.551 220.898 L 244.898 220.898 244.898 212.653 L 244.898 204.408 238.653 204.422 C 234.342 204.432,232.155 204.498,231.592 204.635 M251.755 230.531 L 251.755 256.653 255.184 256.653 L 258.612 256.653 258.612 244.816 L 258.612 232.980 261.709 232.980 L 264.805 232.980 264.851 243.388 L 264.898 253.796 265.290 254.776 C 265.867 256.219,267.856 258.162,269.692 259.076 C 271.923 260.185,271.673 261.620,271.673 247.681 L 271.673 235.607 270.107 233.205 C 269.245 231.884,268.504 230.709,268.460 230.594 C 268.416 230.480,269.121 229.241,270.027 227.842 L 271.673 225.298 271.673 218.894 C 271.671 210.287,271.470 209.387,268.994 206.936 C 266.567 204.533,266.023 204.408,258.007 204.408 L 251.755 204.408 251.755 230.531 M285.261 204.657 C 282.604 205.234,280.182 207.052,279.140 209.253 L 278.612 210.367 278.612 218.286 C 278.612 227.205,278.617 227.248,279.937 229.207 C 281.866 232.072,283.959 232.973,288.694 232.977 L 291.429 232.980 291.429 242.449 L 291.429 251.918 288.327 251.918 L 285.224 251.918 285.224 249.306 L 285.224 246.694 281.878 246.694 L 278.531 246.694 278.531 251.673 L 278.531 256.653 284.367 256.652 C 292.349 256.650,293.515 256.393,295.771 254.136 C 297.968 251.939,298.122 251.184,298.122 242.620 C 298.122 233.842,297.970 233.127,295.585 230.735 C 293.543 228.688,292.165 228.247,287.796 228.246 L 285.224 228.245 285.224 218.776 L 285.224 209.306 288.327 209.306 L 291.429 209.306 291.429 211.918 L 291.429 214.531 294.776 214.531 L 298.122 214.531 298.122 209.469 L 298.122 204.408 292.204 204.421 C 287.860 204.431,286.013 204.493,285.261 204.657 M197.878 230.612 L 197.878 256.653 201.224 256.653 L 204.571 256.653 204.571 244.816 L 204.571 232.980 207.755 232.980 L 210.939 232.980 210.939 242.767 C 210.939 253.117,210.969 253.596,211.712 255.129 C 212.699 257.164,215.061 259.186,217.027 259.679 L 217.469 259.791 217.469 247.636 L 217.469 235.481 215.837 233.053 C 214.939 231.718,214.204 230.572,214.204 230.506 C 214.204 230.441,214.939 229.257,215.837 227.877 L 217.469 225.366 217.469 214.969 L 217.469 204.571 214.204 204.571 L 210.939 204.571 210.939 216.408 L 210.939 228.245 207.755 228.245 L 204.571 228.245 204.571 216.408 L 204.571 204.571 201.224 204.571 L 197.878 204.571 197.878 230.612 M183.837 230.531 L 183.837 251.918 180.735 251.918 L 177.633 251.918 177.633 230.531 L 177.633 209.143 180.735 209.143 L 183.837 209.143 183.837 230.531 M264.980 218.694 L 264.980 228.245 261.796 228.245 L 258.612 228.245 258.612 218.694 L 258.612 209.143 261.796 209.143 L 264.980 209.143 264.980 218.694 M80.254 217.429 C 79.668 219.879,79.467 220.417,79.176 220.324 C 78.845 220.219,78.580 221.316,78.736 222.136 C 78.794 222.435,78.766 222.505,78.641 222.380 C 78.278 222.017,78.178 222.234,78.231 223.266 C 78.280 224.216,78.254 224.327,77.978 224.327 C 77.666 224.327,77.661 225.206,77.970 226.009 C 78.053 226.228,78.014 226.265,77.789 226.179 C 77.527 226.078,77.509 226.160,77.591 227.067 C 77.652 227.739,77.621 228.085,77.497 228.127 C 77.359 228.173,77.359 228.416,77.494 229.074 C 77.624 229.703,77.626 229.991,77.501 230.070 C 77.377 230.147,77.384 230.432,77.525 231.040 C 77.694 231.772,77.687 231.921,77.483 232.035 C 77.272 232.153,77.271 232.266,77.475 232.942 C 77.618 233.416,77.646 233.735,77.548 233.769 C 77.303 233.852,77.355 234.126,77.790 235.061 C 78.105 235.737,78.139 235.918,77.952 235.918 C 77.627 235.918,77.650 236.091,78.116 237.144 C 78.337 237.643,78.439 238.003,78.343 237.944 C 78.246 237.884,78.112 237.926,78.044 238.036 C 77.968 238.159,77.877 237.993,77.808 237.608 C 77.635 236.633,77.545 236.408,77.327 236.408 C 77.213 236.408,76.994 235.906,76.828 235.265 C 76.562 234.242,76.267 233.776,76.232 234.327 C 76.217 234.569,76.007 233.990,75.754 233.007 C 75.628 232.517,75.503 232.326,75.348 232.385 C 75.197 232.443,75.048 232.247,74.894 231.787 C 74.740 231.325,74.571 231.102,74.375 231.101 C 74.179 231.100,73.995 230.859,73.813 230.366 C 73.660 229.952,73.437 229.633,73.301 229.633 C 73.169 229.633,72.900 229.285,72.702 228.859 C 72.472 228.363,72.265 228.116,72.125 228.169 C 71.986 228.223,71.772 227.978,71.539 227.499 C 71.250 226.904,71.127 226.783,70.954 226.926 C 70.784 227.068,70.692 227.001,70.534 226.620 C 70.260 225.960,69.898 225.662,69.719 225.951 C 69.622 226.109,69.464 225.983,69.138 225.492 C 68.676 224.794,68.408 224.636,68.408 225.062 C 68.408 225.205,68.162 225.035,67.818 224.654 C 67.193 223.962,66.939 223.844,66.939 224.245 C 66.939 224.592,66.889 224.573,65.670 223.755 C 64.045 222.665,63.883 223.023,65.175 224.856 C 65.348 225.102,65.443 225.380,65.386 225.473 C 65.328 225.566,65.526 225.870,65.824 226.149 C 66.123 226.428,66.347 226.779,66.322 226.928 C 66.297 227.077,66.457 227.369,66.677 227.576 C 66.898 227.784,67.042 228.049,66.997 228.165 C 66.913 228.383,67.601 229.600,67.920 229.797 C 68.046 229.875,68.040 229.976,67.900 230.144 C 67.739 230.338,67.815 230.496,68.310 231.003 C 68.796 231.501,68.896 231.707,68.813 232.036 C 68.726 232.383,68.802 232.505,69.300 232.812 C 69.798 233.121,69.857 233.215,69.682 233.426 C 69.508 233.636,69.572 233.759,70.085 234.202 C 70.420 234.492,70.694 234.869,70.694 235.041 C 70.694 235.232,70.918 235.475,71.265 235.662 C 71.659 235.874,71.837 236.085,71.837 236.339 C 71.837 236.626,72.000 236.770,72.571 236.988 C 73.302 237.267,73.455 237.440,73.143 237.633 C 72.823 237.830,72.990 238.041,73.784 238.443 C 74.644 238.879,74.955 239.184,74.540 239.184 C 74.042 239.184,74.398 239.786,75.125 240.176 C 75.388 240.316,75.412 240.395,75.251 240.588 C 75.080 240.795,75.001 240.778,74.670 240.467 C 74.459 240.269,74.236 240.158,74.175 240.220 C 74.113 240.282,73.821 240.098,73.526 239.813 C 73.231 239.527,72.850 239.283,72.679 239.270 C 72.508 239.258,72.122 239.041,71.823 238.789 C 71.513 238.528,71.252 238.408,71.218 238.510 C 71.183 238.615,70.913 238.504,70.572 238.244 C 70.179 237.944,69.964 237.863,69.919 237.998 C 69.873 238.136,69.666 238.072,69.253 237.792 C 68.924 237.568,68.629 237.461,68.598 237.553 C 68.565 237.651,68.306 237.577,67.985 237.378 C 67.679 237.189,67.336 237.067,67.224 237.107 C 67.112 237.147,66.812 237.074,66.557 236.945 C 66.302 236.817,65.985 236.753,65.852 236.803 C 65.720 236.854,65.400 236.786,65.141 236.652 C 64.552 236.347,64.477 236.347,64.594 236.652 C 64.676 236.868,64.609 236.868,63.996 236.652 C 63.147 236.352,63.127 236.352,63.240 236.646 C 63.314 236.839,63.253 236.854,62.920 236.728 C 62.334 236.505,62.041 236.534,62.041 236.816 C 62.041 237.011,61.805 237.061,60.898 237.061 C 59.521 237.061,59.465 237.227,60.653 237.789 C 61.147 238.022,61.551 238.285,61.551 238.372 C 61.551 238.459,61.755 238.531,62.005 238.531 C 62.256 238.531,62.583 238.676,62.738 238.857 C 62.891 239.037,63.202 239.184,63.427 239.184 C 63.664 239.184,63.820 239.268,63.796 239.384 C 63.773 239.495,64.091 239.698,64.502 239.837 C 64.933 239.982,65.222 240.171,65.184 240.284 C 65.145 240.401,65.413 240.553,65.851 240.663 C 66.336 240.786,66.610 240.952,66.664 241.158 C 66.725 241.391,66.892 241.469,67.332 241.469 C 67.744 241.469,67.918 241.542,67.918 241.714 C 67.918 241.884,68.089 241.959,68.472 241.959 C 68.814 241.959,69.062 242.053,69.120 242.204 C 69.182 242.366,69.438 242.449,69.872 242.449 C 70.253 242.449,70.531 242.527,70.531 242.633 C 70.531 242.756,70.779 242.790,71.265 242.735 C 71.899 242.664,72.000 242.694,72.000 242.951 C 72.000 243.212,72.099 243.238,72.776 243.158 C 73.510 243.071,73.552 243.088,73.573 243.466 C 73.591 243.803,73.534 243.854,73.206 243.791 C 72.966 243.746,72.816 243.794,72.816 243.918 C 72.816 244.058,72.646 244.086,72.245 244.011 C 71.888 243.944,71.673 243.968,71.673 244.074 C 71.673 244.168,71.453 244.245,71.184 244.245 C 70.914 244.245,70.694 244.318,70.694 244.408 C 70.694 244.498,70.469 244.571,70.194 244.571 C 69.903 244.571,69.737 244.639,69.796 244.735 C 69.855 244.830,69.683 244.898,69.380 244.898 C 68.993 244.898,68.886 244.958,68.955 245.137 C 69.020 245.308,68.889 245.405,68.494 245.479 C 68.142 245.545,67.970 245.658,68.020 245.790 C 68.070 245.919,67.906 246.035,67.583 246.100 C 67.209 246.175,67.093 246.271,67.162 246.452 C 67.227 246.620,66.996 246.888,66.445 247.284 C 65.307 248.101,65.371 248.141,67.755 248.110 C 68.923 248.094,69.878 248.146,69.878 248.224 C 69.878 248.303,70.093 248.324,70.356 248.272 C 70.659 248.211,70.860 248.248,70.906 248.374 C 70.961 248.525,71.064 248.520,71.347 248.352 C 71.643 248.177,71.743 248.174,71.845 248.339 C 71.944 248.501,72.064 248.485,72.394 248.269 C 72.657 248.097,72.816 248.063,72.816 248.178 C 72.816 248.296,72.962 248.269,73.216 248.102 C 73.436 247.958,73.716 247.879,73.838 247.926 C 73.961 247.973,74.198 247.860,74.366 247.675 C 74.593 247.425,74.702 247.391,74.796 247.543 C 74.889 247.693,75.032 247.642,75.347 247.347 C 75.691 247.024,75.799 246.991,75.913 247.175 C 76.031 247.366,76.121 247.359,76.476 247.126 C 76.853 246.879,76.898 246.877,76.898 247.108 C 76.898 247.274,76.971 247.321,77.102 247.238 C 77.214 247.168,77.428 247.130,77.577 247.155 C 77.727 247.179,77.896 247.122,77.954 247.028 C 78.013 246.934,78.212 246.857,78.398 246.857 C 78.584 246.857,79.021 246.600,79.368 246.286 C 80.179 245.554,80.505 245.575,81.430 246.417 C 81.843 246.794,82.924 247.212,83.139 247.079 C 83.216 247.031,83.387 247.081,83.517 247.190 C 83.709 247.349,83.755 247.334,83.755 247.113 C 83.755 246.862,83.786 246.860,84.118 247.093 C 84.579 247.416,84.797 247.417,84.673 247.096 C 84.613 246.938,84.789 247.006,85.146 247.278 C 85.643 247.658,85.714 247.675,85.714 247.417 C 85.714 247.172,85.796 247.200,86.202 247.590 C 86.471 247.847,86.740 248.008,86.802 247.947 C 86.863 247.886,87.086 247.949,87.298 248.088 C 87.509 248.227,87.753 248.297,87.838 248.244 C 87.923 248.191,88.157 248.236,88.356 248.342 C 88.624 248.486,88.735 248.488,88.781 248.351 C 88.826 248.215,88.932 248.214,89.177 248.345 C 89.427 248.479,89.542 248.473,89.636 248.321 C 89.731 248.168,89.883 248.162,90.268 248.296 C 90.652 248.430,90.775 248.425,90.775 248.277 C 90.775 248.134,91.324 248.089,92.815 248.109 C 95.175 248.140,95.302 248.069,94.208 247.325 C 93.764 247.023,93.415 246.667,93.435 246.534 C 93.455 246.394,93.259 246.224,92.966 246.126 C 92.689 246.034,92.491 245.874,92.525 245.770 C 92.560 245.666,92.369 245.532,92.100 245.473 C 91.765 245.400,91.639 245.292,91.700 245.132 C 91.766 244.960,91.656 244.898,91.283 244.898 C 91.004 244.898,90.776 244.824,90.776 244.735 C 90.776 244.645,90.551 244.571,90.276 244.571 C 89.985 244.571,89.819 244.503,89.878 244.408 C 89.938 244.311,89.743 244.245,89.397 244.245 C 89.078 244.245,88.816 244.173,88.816 244.086 C 88.816 243.996,88.603 243.969,88.327 244.024 C 87.991 244.092,87.837 244.058,87.837 243.918 C 87.837 243.777,87.675 243.745,87.306 243.813 C 86.865 243.896,86.819 243.879,87.035 243.711 C 87.177 243.601,87.259 243.407,87.217 243.281 C 87.155 243.096,87.290 243.072,87.912 243.157 C 88.579 243.249,88.695 243.222,88.764 242.959 C 88.830 242.704,88.959 242.668,89.564 242.737 C 90.040 242.790,90.286 242.755,90.286 242.633 C 90.286 242.528,90.558 242.449,90.921 242.449 C 91.336 242.449,91.590 242.364,91.651 242.204 C 91.710 242.050,91.960 241.959,92.321 241.959 C 92.725 241.959,92.898 241.886,92.898 241.714 C 92.898 241.543,93.070 241.469,93.469 241.469 C 93.923 241.469,94.041 241.405,94.041 241.157 C 94.041 240.919,94.200 240.818,94.714 240.731 C 95.160 240.656,95.412 240.519,95.463 240.326 C 95.505 240.166,95.750 239.993,96.009 239.941 C 96.268 239.889,96.629 239.698,96.811 239.515 C 96.994 239.333,97.254 239.184,97.389 239.184 C 97.525 239.184,97.762 239.037,97.915 238.857 C 98.069 238.678,98.390 238.531,98.629 238.531 C 98.867 238.531,99.142 238.434,99.240 238.316 C 99.338 238.198,99.788 237.928,100.240 237.717 C 101.356 237.194,101.275 237.061,99.842 237.061 C 98.825 237.061,98.638 237.021,98.716 236.816 C 98.827 236.528,98.367 236.487,97.733 236.728 C 97.400 236.854,97.339 236.839,97.413 236.646 C 97.528 236.348,97.438 236.349,96.710 236.653 C 95.988 236.954,95.989 236.954,96.105 236.650 C 96.208 236.383,95.503 236.565,95.082 236.914 C 94.952 237.023,94.867 237.009,94.821 236.873 C 94.769 236.715,94.629 236.722,94.193 236.904 C 93.885 237.033,93.539 237.117,93.424 237.091 C 93.310 237.066,93.004 237.196,92.744 237.381 C 92.404 237.623,92.254 237.660,92.205 237.512 C 92.158 237.373,91.934 237.462,91.507 237.787 C 91.095 238.102,90.855 238.199,90.812 238.068 C 90.765 237.927,90.592 237.964,90.214 238.198 C 89.922 238.378,89.637 238.481,89.582 238.425 C 89.526 238.369,89.221 238.552,88.904 238.830 C 88.586 239.109,88.232 239.300,88.116 239.256 C 88.000 239.211,87.606 239.432,87.240 239.745 C 86.873 240.059,86.526 240.268,86.469 240.210 C 86.411 240.153,86.161 240.300,85.912 240.538 C 85.478 240.954,85.453 240.959,85.266 240.659 C 85.096 240.387,85.141 240.304,85.621 240.007 C 86.246 239.621,86.499 239.184,86.097 239.184 C 85.703 239.184,86.123 238.742,86.887 238.352 C 87.550 238.014,87.594 237.937,87.350 237.551 C 87.227 237.356,87.365 237.231,88.024 236.940 C 88.621 236.676,88.826 236.505,88.757 236.327 C 88.694 236.162,88.879 235.936,89.314 235.649 C 89.773 235.345,89.940 235.135,89.877 234.938 C 89.816 234.746,89.968 234.537,90.363 234.268 C 90.964 233.859,91.055 233.651,90.764 233.359 C 90.639 233.235,90.759 233.079,91.181 232.818 C 91.625 232.543,91.761 232.358,91.725 232.078 C 91.694 231.846,91.881 231.449,92.219 231.028 C 92.627 230.520,92.718 230.299,92.586 230.140 C 92.454 229.981,92.497 229.848,92.752 229.617 C 93.200 229.212,93.596 228.435,93.493 228.166 C 93.448 228.049,93.592 227.784,93.812 227.576 C 94.033 227.369,94.193 227.078,94.168 226.930 C 94.143 226.781,94.365 226.456,94.662 226.206 C 94.959 225.956,95.169 225.667,95.129 225.562 C 95.089 225.458,95.342 224.899,95.691 224.319 C 96.633 222.755,96.524 222.652,95.015 223.677 C 93.802 224.501,93.594 224.581,93.524 224.252 C 93.449 223.893,92.832 224.323,92.395 225.039 C 92.114 225.500,92.083 225.515,92.082 225.184 C 92.081 224.638,91.896 224.734,91.306 225.587 C 90.871 226.216,90.776 226.287,90.776 225.984 C 90.776 225.467,90.516 225.681,90.046 226.583 C 89.827 227.003,89.644 227.218,89.640 227.061 C 89.627 226.576,89.369 226.743,88.971 227.493 C 88.752 227.905,88.504 228.177,88.387 228.133 C 88.264 228.085,88.045 228.378,87.832 228.873 C 87.617 229.373,87.400 229.662,87.275 229.614 C 87.150 229.566,86.938 229.854,86.729 230.358 C 86.488 230.936,86.316 231.154,86.150 231.090 C 85.984 231.026,85.829 231.219,85.633 231.732 C 85.459 232.188,85.274 232.436,85.145 232.386 C 85.006 232.333,84.859 232.620,84.699 233.256 C 84.568 233.777,84.378 234.186,84.276 234.165 C 84.033 234.113,83.846 234.498,83.581 235.592 C 83.462 236.086,83.336 236.361,83.303 236.204 C 83.269 236.047,83.142 235.918,83.021 235.918 C 82.858 235.918,82.912 235.658,83.228 234.927 C 83.570 234.134,83.612 233.909,83.438 233.802 C 83.266 233.696,83.260 233.557,83.406 233.136 C 83.658 232.413,83.639 232.000,83.354 232.000 C 83.146 232.000,83.146 231.916,83.354 231.326 C 83.625 230.559,83.658 230.093,83.447 230.014 C 83.365 229.983,83.381 229.574,83.485 229.074 C 83.621 228.416,83.620 228.173,83.483 228.127 C 83.358 228.085,83.327 227.739,83.388 227.067 C 83.471 226.160,83.452 226.078,83.191 226.179 C 82.978 226.261,82.927 226.226,82.996 226.045 C 83.316 225.213,83.304 224.184,82.976 224.269 C 82.665 224.351,82.652 224.298,82.735 223.261 L 82.823 222.167 82.448 222.368 C 82.113 222.547,82.085 222.537,82.187 222.272 C 82.410 221.690,82.118 220.224,81.799 220.326 C 81.557 220.402,81.444 220.154,81.058 218.698 C 80.584 216.910,80.435 216.674,80.254 217.429 M321.638 217.917 C 321.211 219.825,320.980 220.421,320.686 220.373 C 320.453 220.334,320.395 220.509,320.327 221.469 C 320.279 222.138,320.190 222.528,320.113 222.408 C 319.779 221.892,319.644 222.241,319.754 223.336 C 319.866 224.450,319.862 224.466,319.503 224.372 C 319.121 224.272,319.115 224.491,319.458 225.920 C 319.530 226.222,319.494 226.269,319.257 226.178 C 318.994 226.077,318.977 226.155,319.072 227.062 C 319.146 227.766,319.119 228.076,318.982 228.122 C 318.832 228.172,318.835 228.391,318.992 229.071 C 319.129 229.668,319.141 229.973,319.026 230.012 C 318.792 230.090,318.815 230.533,319.095 231.326 C 319.303 231.916,319.303 232.000,319.095 232.000 C 318.810 232.000,318.791 232.413,319.042 233.136 C 319.191 233.561,319.183 233.695,319.005 233.806 C 318.824 233.917,318.866 234.116,319.227 234.853 C 319.750 235.918,319.750 235.918,319.418 235.918 C 319.124 235.918,319.197 236.273,319.694 237.259 C 320.068 237.999,320.068 237.966,319.690 237.995 C 319.444 238.013,319.358 237.871,319.272 237.295 C 319.206 236.854,319.051 236.512,318.876 236.418 C 318.708 236.328,318.498 235.890,318.373 235.370 C 318.097 234.220,317.935 233.953,317.717 234.286 C 317.575 234.501,317.556 234.500,317.554 234.275 C 317.547 233.648,317.032 232.303,316.828 232.381 C 316.691 232.434,316.547 232.236,316.425 231.830 C 316.224 231.156,315.902 230.826,315.786 231.173 C 315.747 231.289,315.559 230.990,315.367 230.508 C 315.175 230.027,314.917 229.633,314.793 229.633 C 314.670 229.633,314.409 229.302,314.213 228.898 C 314.016 228.494,313.775 228.180,313.676 228.200 C 313.576 228.220,313.293 227.891,313.046 227.469 C 312.798 227.047,312.566 226.792,312.529 226.902 C 312.411 227.258,312.219 227.116,311.918 226.449 C 311.607 225.758,311.515 225.693,311.242 225.966 C 311.125 226.083,310.938 225.933,310.636 225.476 C 310.174 224.778,309.878 224.631,309.878 225.099 C 309.878 225.284,309.739 225.178,309.477 224.793 C 309.139 224.294,308.767 224.000,308.476 224.000 C 308.439 224.000,308.408 224.110,308.408 224.245 C 308.408 224.591,308.341 224.567,307.260 223.833 C 305.586 222.697,305.413 222.801,306.377 224.364 C 306.697 224.882,306.920 225.367,306.873 225.443 C 306.827 225.519,307.034 225.819,307.334 226.110 C 307.674 226.439,307.852 226.749,307.805 226.927 C 307.758 227.109,307.915 227.371,308.230 227.636 C 308.505 227.867,308.647 228.083,308.547 228.117 C 308.327 228.190,308.753 229.079,309.244 229.571 C 309.496 229.823,309.530 229.951,309.388 230.122 C 309.245 230.295,309.334 230.488,309.792 230.995 C 310.232 231.481,310.357 231.742,310.289 232.027 C 310.216 232.331,310.309 232.480,310.752 232.764 C 311.191 233.045,311.290 233.202,311.230 233.517 C 311.172 233.823,311.271 233.999,311.659 234.275 C 311.936 234.473,312.163 234.776,312.163 234.948 C 312.163 235.128,312.408 235.421,312.733 235.631 C 313.046 235.834,313.303 236.130,313.304 236.288 C 313.305 236.466,313.583 236.710,314.031 236.928 C 314.667 237.237,314.746 237.333,314.671 237.705 C 314.598 238.071,314.663 238.157,315.147 238.332 C 315.834 238.580,316.456 239.184,316.025 239.184 C 315.598 239.184,315.707 239.440,316.352 239.958 C 316.714 240.248,316.903 240.513,316.831 240.630 C 316.745 240.768,316.595 240.730,316.293 240.493 C 316.063 240.311,315.751 240.163,315.600 240.163 C 315.450 240.163,315.113 239.941,314.853 239.669 C 314.593 239.397,314.262 239.195,314.118 239.219 C 313.974 239.244,313.616 239.061,313.323 238.814 C 313.029 238.567,312.723 238.406,312.643 238.455 C 312.562 238.505,312.264 238.377,311.980 238.171 C 311.619 237.909,311.442 237.857,311.392 237.997 C 311.343 238.137,311.139 238.075,310.723 237.792 C 310.393 237.568,310.098 237.461,310.067 237.553 C 310.035 237.651,309.773 237.576,309.450 237.376 C 309.142 237.185,308.796 237.065,308.682 237.109 C 308.567 237.153,308.293 237.090,308.073 236.968 C 307.590 236.700,307.205 236.669,307.354 236.910 C 307.414 237.006,307.161 236.931,306.793 236.743 C 306.247 236.465,306.122 236.446,306.122 236.643 C 306.122 236.853,306.040 236.855,305.469 236.653 C 304.896 236.451,304.816 236.453,304.816 236.666 C 304.816 236.856,304.747 236.872,304.501 236.740 C 304.012 236.479,303.457 236.524,303.569 236.816 C 303.648 237.021,303.461 237.061,302.444 237.061 C 300.988 237.061,300.935 237.178,302.122 237.760 C 302.616 238.002,303.020 238.275,303.020 238.366 C 303.020 238.456,303.261 238.531,303.556 238.531 C 303.889 238.531,304.196 238.654,304.370 238.857 C 304.524 239.037,304.761 239.184,304.896 239.184 C 305.032 239.184,305.292 239.333,305.474 239.515 C 305.657 239.698,306.028 239.891,306.300 239.946 C 306.626 240.011,306.764 240.120,306.708 240.266 C 306.650 240.419,306.849 240.545,307.347 240.670 C 307.809 240.786,308.107 240.964,308.169 241.161 C 308.240 241.384,308.421 241.469,308.827 241.469 C 309.217 241.469,309.388 241.544,309.388 241.714 C 309.388 241.886,309.561 241.959,309.964 241.959 C 310.326 241.959,310.576 242.050,310.635 242.204 C 310.696 242.364,310.950 242.449,311.364 242.449 C 311.728 242.449,312.000 242.528,312.000 242.633 C 312.000 242.756,312.249 242.790,312.735 242.735 C 313.378 242.663,313.469 242.691,313.469 242.964 C 313.469 243.242,313.554 243.265,314.245 243.174 C 314.982 243.076,315.021 243.091,315.042 243.469 C 315.061 243.803,315.003 243.854,314.675 243.791 C 314.434 243.745,314.286 243.794,314.286 243.920 C 314.286 244.058,314.130 244.091,313.796 244.024 C 313.520 243.969,313.306 243.996,313.306 244.086 C 313.306 244.173,313.045 244.245,312.725 244.245 C 312.379 244.245,312.185 244.311,312.245 244.408 C 312.304 244.503,312.138 244.571,311.846 244.571 C 311.572 244.571,311.347 244.645,311.347 244.735 C 311.347 244.824,311.119 244.898,310.840 244.898 C 310.466 244.898,310.356 244.960,310.422 245.132 C 310.484 245.292,310.357 245.400,310.023 245.473 C 309.754 245.532,309.562 245.666,309.597 245.770 C 309.632 245.874,309.434 246.034,309.157 246.126 C 308.862 246.224,308.668 246.393,308.689 246.534 C 308.709 246.667,308.360 247.015,307.914 247.307 C 306.754 248.067,306.858 248.131,309.225 248.105 C 310.392 248.092,311.347 248.145,311.347 248.222 C 311.347 248.300,311.597 248.316,311.903 248.259 C 312.266 248.190,312.482 248.221,312.523 248.345 C 312.571 248.489,312.672 248.491,312.933 248.351 C 313.197 248.210,313.296 248.213,313.346 248.365 C 313.395 248.511,313.526 248.490,313.837 248.286 C 314.149 248.082,314.280 248.061,314.331 248.208 C 314.381 248.350,314.501 248.320,314.741 248.106 C 314.928 247.941,315.165 247.856,315.267 247.919 C 315.369 247.983,315.641 247.861,315.871 247.650 C 316.170 247.375,316.311 247.326,316.365 247.477 C 316.419 247.628,316.596 247.569,316.993 247.266 C 317.346 246.997,317.511 246.936,317.449 247.096 C 317.321 247.430,317.691 247.419,318.069 247.077 C 318.348 246.824,318.367 246.826,318.367 247.102 C 318.367 247.382,318.384 247.383,318.677 247.117 C 318.854 246.957,319.011 246.910,319.044 247.006 C 319.124 247.238,320.222 246.847,320.693 246.417 C 321.584 245.605,322.206 245.631,323.005 246.514 C 323.176 246.703,323.484 246.857,323.689 246.857 C 323.894 246.857,324.110 246.934,324.168 247.028 C 324.226 247.122,324.396 247.179,324.545 247.155 C 324.694 247.130,324.908 247.168,325.020 247.238 C 325.152 247.321,325.224 247.274,325.224 247.108 C 325.224 246.877,325.269 246.879,325.647 247.126 C 325.963 247.333,326.099 247.354,326.190 247.207 C 326.278 247.064,326.434 247.108,326.763 247.367 C 327.086 247.620,327.250 247.667,327.334 247.531 C 327.418 247.396,327.543 247.439,327.757 247.675 C 327.924 247.860,328.161 247.973,328.284 247.926 C 328.407 247.879,328.687 247.958,328.907 248.102 C 329.190 248.288,329.306 248.306,329.306 248.163 C 329.306 248.025,329.439 248.049,329.735 248.243 C 330.055 248.453,330.194 248.475,330.284 248.329 C 330.377 248.179,330.488 248.184,330.759 248.352 C 331.046 248.530,331.137 248.532,331.243 248.361 C 331.341 248.204,331.485 248.193,331.809 248.316 C 332.134 248.440,332.245 248.431,332.245 248.282 C 332.245 248.133,332.769 248.089,334.284 248.109 C 336.652 248.141,336.771 248.070,335.678 247.284 C 335.126 246.888,334.896 246.620,334.960 246.452 C 335.030 246.271,334.914 246.175,334.539 246.100 C 334.216 246.035,334.053 245.919,334.102 245.790 C 334.153 245.658,333.981 245.545,333.629 245.479 C 333.233 245.405,333.102 245.308,333.168 245.137 C 333.236 244.958,333.129 244.898,332.743 244.898 C 332.440 244.898,332.267 244.830,332.327 244.735 C 332.385 244.639,332.219 244.571,331.928 244.571 C 331.653 244.571,331.429 244.498,331.429 244.408 C 331.429 244.318,331.167 244.245,330.848 244.245 C 330.478 244.245,330.306 244.182,330.374 244.071 C 330.446 243.954,330.292 243.933,329.894 244.008 C 329.478 244.086,329.306 244.059,329.306 243.918 C 329.306 243.792,329.154 243.746,328.897 243.795 C 328.571 243.857,328.524 243.829,328.666 243.658 C 328.764 243.540,328.790 243.355,328.724 243.248 C 328.634 243.102,328.813 243.081,329.445 243.165 C 330.203 243.266,330.286 243.246,330.286 242.964 C 330.286 242.691,330.377 242.663,331.020 242.735 C 331.507 242.790,331.755 242.756,331.755 242.633 C 331.755 242.528,332.027 242.449,332.391 242.449 C 332.805 242.449,333.059 242.364,333.120 242.204 C 333.179 242.050,333.429 241.959,333.791 241.959 C 334.194 241.959,334.367 241.886,334.367 241.714 C 334.367 241.542,334.541 241.469,334.954 241.469 C 335.394 241.469,335.561 241.391,335.622 241.158 C 335.676 240.952,335.950 240.785,336.438 240.663 C 336.943 240.535,337.147 240.408,337.088 240.257 C 337.033 240.113,337.168 240.003,337.476 239.941 C 337.736 239.889,338.098 239.698,338.281 239.515 C 338.463 239.333,338.723 239.184,338.859 239.184 C 338.994 239.184,339.231 239.037,339.385 238.857 C 339.539 238.678,339.864 238.531,340.108 238.531 C 340.352 238.531,340.600 238.453,340.659 238.358 C 340.718 238.263,341.163 237.997,341.648 237.767 C 342.831 237.207,342.761 237.061,341.311 237.061 C 340.248 237.061,340.105 237.027,340.195 236.793 C 340.283 236.562,340.211 236.541,339.676 236.642 C 339.280 236.716,339.014 236.693,338.944 236.580 C 338.866 236.454,338.655 236.475,338.233 236.652 C 337.694 236.877,337.633 236.877,337.633 236.652 C 337.633 236.440,337.535 236.452,336.992 236.728 C 336.571 236.943,336.331 236.993,336.291 236.873 C 336.250 236.751,336.059 236.780,335.702 236.965 C 335.412 237.115,335.100 237.192,335.010 237.137 C 334.920 237.081,334.596 237.183,334.290 237.363 C 333.984 237.544,333.711 237.623,333.683 237.538 C 333.655 237.454,333.362 237.568,333.033 237.792 C 332.637 238.060,332.412 238.133,332.369 238.006 C 332.326 237.877,332.132 237.936,331.786 238.182 C 331.501 238.385,331.187 238.501,331.088 238.441 C 330.990 238.380,330.611 238.614,330.247 238.961 C 329.883 239.308,329.637 239.500,329.700 239.388 C 329.910 239.016,329.401 239.186,328.822 239.680 C 328.512 239.946,328.148 240.163,328.015 240.163 C 327.882 240.163,327.583 240.345,327.352 240.567 C 326.950 240.952,326.921 240.956,326.742 240.669 C 326.579 240.409,326.635 240.313,327.143 239.979 C 327.805 239.545,328.006 239.184,327.585 239.184 C 327.173 239.184,327.574 238.751,328.356 238.352 C 328.968 238.040,329.151 237.676,328.804 237.462 C 328.708 237.403,329.002 237.181,329.458 236.970 C 330.038 236.701,330.286 236.491,330.286 236.269 C 330.286 236.076,330.519 235.813,330.875 235.603 C 331.289 235.358,331.441 235.169,331.387 234.962 C 331.335 234.763,331.487 234.548,331.859 234.293 C 332.412 233.915,332.552 233.578,332.239 233.384 C 332.145 233.326,332.363 233.067,332.729 232.802 C 333.399 232.316,333.519 232.101,333.221 231.916 C 333.125 231.857,333.339 231.489,333.723 231.053 C 334.091 230.636,334.313 230.267,334.216 230.235 C 333.930 230.140,334.011 229.895,334.552 229.223 C 334.881 228.813,335.033 228.472,334.978 228.264 C 334.921 228.044,335.044 227.806,335.361 227.524 C 335.618 227.294,335.792 227.011,335.747 226.894 C 335.702 226.777,335.887 226.468,336.159 226.208 C 336.431 225.948,336.653 225.611,336.653 225.459 C 336.653 225.307,336.910 224.755,337.224 224.233 C 338.105 222.771,337.969 222.669,336.484 223.677 C 335.271 224.501,334.925 224.647,335.069 224.273 C 335.257 223.782,334.822 223.983,334.170 224.690 C 333.820 225.070,333.582 225.253,333.641 225.098 C 333.842 224.574,333.390 224.808,332.937 225.463 C 332.439 226.184,332.297 226.256,332.209 225.837 C 332.167 225.639,331.988 225.826,331.627 226.449 C 331.340 226.943,331.104 227.214,331.104 227.052 C 331.101 226.609,330.818 226.870,330.372 227.726 C 330.153 228.146,329.971 228.398,329.967 228.286 C 329.950 227.832,329.656 228.133,329.251 229.020 C 329.015 229.537,328.821 229.867,328.819 229.755 C 328.812 229.291,328.504 229.603,328.237 230.346 C 328.018 230.953,327.884 231.123,327.667 231.066 C 327.452 231.010,327.327 231.163,327.148 231.700 C 327.018 232.090,326.808 232.408,326.681 232.408 C 326.540 232.408,326.355 232.758,326.205 233.306 C 326.048 233.881,325.872 234.204,325.717 234.204 C 325.557 234.204,325.378 234.559,325.194 235.244 C 324.904 236.317,324.735 236.666,324.735 236.190 C 324.735 236.041,324.623 235.918,324.487 235.918 C 324.288 235.918,324.319 235.761,324.650 235.107 C 325.092 234.235,325.161 233.856,324.892 233.767 C 324.782 233.730,324.810 233.459,324.973 232.998 C 325.285 232.113,325.286 232.000,324.980 232.000 C 324.700 232.000,324.677 231.852,324.874 231.317 C 325.189 230.463,325.234 230.041,325.012 230.041 C 324.833 230.041,324.828 229.872,324.983 229.102 C 325.140 228.324,325.134 228.154,324.947 228.109 C 324.823 228.079,324.756 227.932,324.798 227.783 C 325.105 226.687,325.097 226.075,324.775 226.159 C 324.480 226.236,324.464 226.192,324.589 225.652 C 324.812 224.694,324.774 224.158,324.490 224.267 C 324.287 224.345,324.245 224.172,324.245 223.263 C 324.245 222.305,324.214 222.190,324.000 222.367 C 323.788 222.543,323.755 222.464,323.753 221.775 C 323.750 220.701,323.607 220.230,323.299 220.283 C 323.052 220.325,322.843 219.786,322.291 217.673 C 322.047 216.740,321.888 216.800,321.638 217.917 M159.510 262.631 C 123.788 262.940,95.970 263.452,66.776 264.338 C 61.223 264.506,57.896 264.751,60.490 264.800 C 61.029 264.810,63.416 264.891,65.796 264.979 C 132.072 267.433,271.632 267.432,336.408 264.978 C 338.743 264.890,341.131 264.809,341.714 264.799 C 344.417 264.753,341.115 264.508,335.510 264.338 C 311.646 263.614,297.910 263.320,265.633 262.842 C 255.237 262.688,172.026 262.523,159.510 262.631 M157.796 272.602 C 151.122 273.183,147.525 277.636,147.534 285.306 C 147.545 294.471,152.102 298.557,161.306 297.655 C 163.402 297.450,165.178 297.011,166.382 296.401 L 167.184 295.994 167.184 293.385 L 167.184 290.776 165.895 290.776 C 164.424 290.776,164.586 290.580,164.222 292.795 C 163.926 294.603,163.017 295.017,159.347 295.014 C 153.387 295.009,150.537 291.580,150.734 284.653 C 150.941 277.396,155.966 273.636,162.641 275.743 L 163.731 276.087 164.020 277.737 C 164.374 279.761,164.442 279.837,165.889 279.837 L 167.020 279.837 167.020 277.053 L 167.020 274.269 166.000 273.793 C 163.885 272.807,160.717 272.347,157.796 272.602 M176.980 273.949 L 176.980 274.919 177.755 275.018 C 178.182 275.072,178.769 275.153,179.061 275.198 L 179.592 275.280 179.592 285.139 C 179.592 294.389,179.574 295.003,179.306 295.079 C 179.149 295.124,178.561 295.209,178.000 295.270 L 176.980 295.379 176.980 296.343 L 176.980 297.306 185.796 297.306 L 194.612 297.306 194.612 294.367 L 194.612 291.429 193.408 291.429 L 192.203 291.429 191.997 292.776 C 191.883 293.516,191.729 294.288,191.654 294.490 L 191.518 294.857 187.188 294.857 L 182.857 294.857 182.857 285.077 L 182.857 275.296 183.714 275.193 C 184.186 275.137,184.920 275.050,185.347 274.999 L 186.122 274.908 186.122 273.944 L 186.122 272.980 181.551 272.980 L 176.980 272.980 176.980 273.949 M203.265 273.947 L 203.265 274.915 204.204 275.013 C 204.720 275.067,205.327 275.166,205.551 275.233 L 205.959 275.355 206.045 283.596 C 206.147 293.405,206.264 294.036,208.338 295.909 C 211.386 298.663,219.089 298.323,221.793 295.316 C 223.589 293.318,223.673 292.790,223.676 283.435 C 223.677 279.166,223.737 275.581,223.808 275.469 C 223.909 275.311,225.597 274.981,226.490 274.944 C 226.557 274.941,226.612 274.498,226.612 273.959 L 226.612 272.980 222.367 272.980 L 218.122 272.980 218.122 273.939 C 218.122 274.993,218.267 275.102,219.663 275.102 C 220.819 275.102,220.761 274.645,220.703 283.271 C 220.651 290.801,220.640 291.048,220.288 292.000 C 219.522 294.075,217.830 295.020,214.883 295.020 C 211.362 295.020,209.701 293.536,209.310 290.041 C 209.116 288.309,209.089 275.767,209.278 275.469 C 209.378 275.311,211.066 274.981,211.959 274.944 C 212.027 274.941,212.082 274.498,212.082 273.959 L 212.082 272.980 207.673 272.980 L 203.265 272.980 203.265 273.947 M236.082 273.949 L 236.082 274.919 236.857 275.018 C 237.284 275.072,237.871 275.153,238.163 275.198 L 238.694 275.280 238.694 285.133 C 238.694 293.165,238.654 295.001,238.477 295.069 C 238.358 295.114,237.771 295.204,237.171 295.268 L 236.082 295.385 236.082 296.346 L 236.082 297.306 242.026 297.306 C 250.833 297.306,252.765 296.744,254.237 293.754 C 256.090 289.989,253.987 285.310,250.209 284.792 L 249.469 284.690 250.283 284.313 C 254.247 282.476,254.533 275.782,250.730 273.854 C 249.205 273.082,248.231 272.985,241.918 272.982 L 236.082 272.980 236.082 273.949 M246.776 275.761 C 249.230 276.109,250.174 277.099,250.189 279.337 C 250.208 282.365,248.642 283.509,244.204 283.706 L 241.959 283.805 241.959 279.699 L 241.959 275.592 243.796 275.595 C 244.806 275.597,246.147 275.671,246.776 275.761 M114.286 285.234 C 99.784 286.205,87.741 287.004,87.524 287.010 C 85.743 287.057,90.635 287.417,113.164 288.896 C 127.385 289.829,139.443 290.627,139.959 290.668 L 140.898 290.745 140.898 287.087 C 140.898 285.075,140.843 283.438,140.776 283.449 C 140.708 283.460,128.788 284.263,114.286 285.234 M261.388 287.110 L 261.388 290.752 262.245 290.675 C 262.716 290.633,274.306 289.868,288.000 288.976 C 313.302 287.328,315.170 287.197,315.058 287.085 C 315.023 287.050,303.245 286.252,288.885 285.312 C 274.525 284.372,262.463 283.573,262.082 283.536 L 261.388 283.469 261.388 287.110 M248.677 286.526 C 250.746 287.167,251.582 288.320,251.588 290.537 C 251.597 293.689,250.282 294.512,245.020 294.652 L 241.959 294.733 241.959 290.469 L 241.959 286.204 244.799 286.204 C 247.165 286.204,247.812 286.258,248.677 286.526 M200.510 307.469 C 200.214 308.390,199.450 310.741,198.812 312.694 L 197.652 316.245 192.214 316.245 C 189.223 316.245,186.779 316.300,186.784 316.367 C 186.788 316.435,188.761 317.911,191.167 319.649 L 195.542 322.808 193.855 327.975 C 192.927 330.817,192.167 333.169,192.166 333.201 C 192.158 333.377,192.990 332.810,196.781 330.055 C 199.078 328.386,201.041 327.020,201.143 327.020 C 201.245 327.020,203.207 328.386,205.505 330.055 C 209.296 332.810,210.127 333.377,210.120 333.201 C 210.119 333.169,209.358 330.817,208.431 327.975 L 206.744 322.808 211.119 319.649 C 213.525 317.911,215.497 316.435,215.502 316.367 C 215.506 316.300,213.061 316.245,210.067 316.245 L 204.624 316.245 203.388 312.449 C 202.708 310.361,201.947 308.010,201.695 307.224 C 201.129 305.453,201.161 305.447,200.510 307.469 M165.614 311.918 L 164.356 315.755 160.382 315.755 C 158.196 315.755,156.410 315.810,156.412 315.878 C 156.414 315.969,161.689 319.885,162.647 320.507 C 162.732 320.562,162.247 322.286,161.553 324.402 C 160.868 326.490,160.337 328.228,160.373 328.264 C 160.410 328.301,161.900 327.270,163.684 325.974 L 166.929 323.617 167.669 324.154 C 168.075 324.449,169.536 325.513,170.915 326.519 C 172.293 327.525,173.448 328.320,173.481 328.287 C 173.514 328.254,172.994 326.542,172.325 324.481 C 171.656 322.421,171.108 320.698,171.106 320.653 C 171.105 320.608,172.534 319.543,174.282 318.286 C 176.030 317.029,177.463 315.945,177.465 315.878 C 177.467 315.810,175.673 315.755,173.477 315.755 L 169.485 315.755 168.247 311.918 C 167.565 309.808,166.977 308.082,166.940 308.082 C 166.902 308.082,166.306 309.808,165.614 311.918 M234.039 311.918 L 232.801 315.755 228.808 315.755 C 226.613 315.755,224.818 315.810,224.821 315.878 C 224.823 315.945,226.256 317.027,228.004 318.283 C 229.753 319.539,231.182 320.604,231.180 320.650 C 231.178 320.697,230.629 322.421,229.961 324.481 C 229.292 326.542,228.771 328.254,228.804 328.287 C 228.837 328.320,229.992 327.525,231.371 326.519 C 232.750 325.513,234.210 324.449,234.617 324.154 L 235.357 323.617 238.601 325.974 C 240.386 327.270,241.876 328.301,241.912 328.264 C 241.949 328.228,241.418 326.490,240.733 324.402 C 240.038 322.286,239.554 320.562,239.639 320.507 C 240.597 319.885,245.872 315.969,245.874 315.878 C 245.876 315.810,244.089 315.755,241.904 315.755 L 237.930 315.755 236.672 311.918 C 235.980 309.808,235.383 308.082,235.346 308.082 C 235.308 308.082,234.720 309.808,234.039 311.918 M143.686 334.000 C 143.144 336.028,141.070 344.880,141.125 344.934 C 141.201 345.011,149.056 346.774,149.326 346.775 C 149.486 346.775,149.805 345.505,149.676 345.377 C 149.650 345.350,148.196 345.018,146.447 344.638 C 144.697 344.258,143.253 343.941,143.239 343.933 C 143.169 343.894,144.056 340.309,144.165 340.189 C 144.235 340.114,145.473 340.316,146.917 340.638 C 150.110 341.351,149.814 341.360,149.944 340.550 C 150.078 339.709,150.397 339.873,147.261 339.175 C 145.782 338.846,144.552 338.559,144.528 338.537 C 144.457 338.473,145.170 335.438,145.284 335.321 C 145.341 335.262,146.672 335.498,148.242 335.846 C 151.324 336.529,151.256 336.534,151.415 335.637 C 151.512 335.095,151.483 335.021,151.149 334.946 C 143.037 333.126,143.890 333.234,143.686 334.000 M255.755 334.023 C 252.112 334.962,252.504 341.533,256.221 341.842 C 257.327 341.933,258.154 341.567,258.775 340.710 L 259.226 340.087 259.327 340.595 C 259.931 343.612,257.415 346.258,256.429 343.644 C 256.184 342.994,254.531 343.116,254.531 343.783 C 254.531 344.942,255.965 346.044,257.458 346.033 C 259.930 346.016,261.152 344.526,261.133 341.551 C 261.104 336.790,258.603 333.289,255.755 334.023 M257.259 335.668 C 258.725 336.562,259.023 339.311,257.738 340.094 C 256.691 340.732,255.699 340.186,255.268 338.734 C 254.557 336.340,255.636 334.679,257.259 335.668 M242.327 336.595 C 242.214 336.642,242.122 336.825,242.122 337.001 C 242.122 337.866,241.328 338.665,240.269 338.863 C 239.741 338.962,239.673 339.031,239.673 339.466 L 239.673 339.956 240.612 339.840 C 241.129 339.777,241.616 339.713,241.695 339.699 C 241.774 339.685,242.175 341.712,242.586 344.204 C 243.209 347.978,243.376 348.724,243.586 348.667 C 243.724 348.630,244.112 348.553,244.449 348.497 C 245.225 348.366,245.250 348.837,244.108 342.122 C 243.109 336.247,243.115 336.265,242.327 336.595 M160.408 337.225 C 158.746 338.125,158.056 340.099,158.935 341.440 C 159.087 341.673,160.270 342.535,161.563 343.354 C 164.617 345.291,165.156 345.939,164.495 346.881 C 163.284 348.610,159.425 347.602,159.224 345.504 C 159.145 344.681,159.128 344.658,158.551 344.561 C 158.226 344.506,157.831 344.426,157.673 344.383 C 157.242 344.265,157.275 345.950,157.723 346.874 C 159.116 349.753,165.161 350.063,166.310 347.314 C 167.108 345.404,166.512 344.452,163.258 342.440 C 160.625 340.811,160.252 340.466,160.401 339.789 C 160.860 337.699,165.220 338.366,165.224 340.528 C 165.224 340.897,165.291 340.929,166.490 341.128 C 168.028 341.384,166.533 338.235,164.735 337.431 C 163.710 336.974,161.102 336.849,160.408 337.225 M174.121 339.272 C 173.975 340.137,173.904 340.097,175.992 340.319 C 176.980 340.424,177.832 340.553,177.885 340.606 C 177.937 340.659,177.760 343.004,177.491 345.817 C 177.221 348.631,177.014 350.946,177.031 350.963 C 177.048 350.979,177.465 351.014,177.959 351.040 L 178.857 351.087 179.293 346.278 C 179.533 343.633,179.735 341.297,179.742 341.086 L 179.755 340.703 181.483 340.821 C 182.434 340.886,183.334 340.948,183.483 340.959 C 183.700 340.975,183.755 340.830,183.755 340.245 L 183.755 339.510 182.204 339.396 C 180.173 339.247,175.407 338.794,174.750 338.687 C 174.255 338.606,174.230 338.630,174.121 339.272 M226.469 338.966 C 223.499 340.436,223.840 348.690,226.939 350.329 C 229.491 351.680,232.362 349.862,232.607 346.739 C 233.051 341.079,230.001 337.218,226.469 338.966 M212.490 340.026 C 211.301 340.653,210.702 341.626,210.513 343.237 L 210.404 344.163 211.324 344.163 C 212.220 344.163,212.245 344.151,212.246 343.714 C 212.251 341.276,214.722 340.260,215.326 342.448 C 215.661 343.663,215.270 344.418,212.836 347.245 C 210.731 349.690,210.449 350.166,210.449 351.268 L 210.449 352.038 211.633 351.941 C 212.284 351.888,214.016 351.796,215.483 351.737 C 218.096 351.633,218.147 351.624,218.056 351.285 C 218.005 351.094,217.963 350.764,217.961 350.551 L 217.959 350.162 215.347 350.281 C 213.910 350.346,212.735 350.359,212.735 350.309 C 212.735 350.260,213.580 349.206,214.613 347.967 C 217.112 344.971,217.507 344.113,217.232 342.279 C 216.943 340.354,214.274 339.086,212.490 340.026 M229.290 340.579 C 230.897 341.990,231.246 347.728,229.794 348.871 C 227.905 350.356,226.300 347.711,226.294 343.102 C 226.291 340.550,227.804 339.275,229.290 340.579 M190.041 351.020 L 190.041 351.837 190.681 351.837 C 191.032 351.837,191.436 351.881,191.578 351.936 C 191.795 352.019,191.837 351.887,191.837 351.120 L 191.837 350.204 190.939 350.204 L 190.041 350.204 190.041 351.020 " stroke="#000000" stroke-width="0.5" fill-rule="evenodd"></path></g></svg>